<svg width="334" height="40" viewBox="0 0 334 40" fill="none" xmlns="http://www.w3.org/2000/svg">
<g clip-path="url(#clip0)">
<path d="M3.90247 39.5V20.3491L4.25513 20.2209L54.0762 1.88232V21.0218L53.7235 21.15L3.90247 39.5ZM5.03273 21.0218V37.9808L52.946 20.3491V3.39866L5.03273 21.0218Z" fill="white"/>
<path d="M0.398895 18.5506V36.5984L49.4453 18.5506V0.5L0.398895 18.5506Z" fill="white"/>
<path d="M47.8062 6.88171C47.4439 6.31087 46.9031 5.8717 46.2654 5.63045C46.2246 5.30497 46.0645 5.00543 45.8154 4.78813C45.5663 4.57082 45.2452 4.45074 44.9126 4.45045H40.6604C40.4269 4.44971 40.1979 4.51338 39.9991 4.63426C39.8004 4.75514 39.64 4.92842 39.5359 5.13451L39.3133 5.55064C38.7245 5.63998 38.1918 5.94541 37.8217 6.40572L37.7755 6.46558C37.3766 6.97292 37.1366 7.2779 36.2983 7.2779H17.4539C16.6156 7.2779 16.3757 6.97292 15.9739 6.46272L15.9276 6.40287C15.5576 5.94256 15.0248 5.63713 14.436 5.54779L14.2279 5.13736C14.1238 4.93127 13.9634 4.75799 13.7646 4.63711C13.5659 4.51623 13.3369 4.45256 13.1034 4.4533H8.8512C8.51902 4.4535 8.19833 4.57319 7.94926 4.78991C7.7002 5.00663 7.53987 5.30549 7.49835 5.63045C6.84591 5.84135 6.29659 6.28442 5.95761 6.87316C-0.465507 17.5673 -0.159094 28.5579 0.112631 31.4737C0.378575 34.324 1.64759 36.0512 4.33593 36.8892C4.71452 37.0208 5.11125 37.0948 5.51245 37.1087C9.15761 37.1087 9.61434 36.2308 9.61434 36.2308C9.61434 36.2308 12.3634 29.9061 15.2656 25.0891L16.2369 25.1176C16.3207 25.1689 16.4075 25.2174 16.4942 25.2658L16.5607 25.3001C16.6734 25.3599 16.789 25.4141 16.9162 25.4682L16.9712 25.491C17.2512 25.6053 17.5415 25.6931 17.8384 25.7532L17.9309 25.7703C18.0465 25.7931 18.165 25.8102 18.3067 25.8273H18.3992C18.6982 25.8545 18.9991 25.8545 19.2982 25.8273H19.4138C19.5323 25.8273 19.6479 25.796 19.7925 25.7703H19.8561C20.1529 25.7102 20.4433 25.6224 20.7233 25.5081L20.7898 25.4796C20.9054 25.4312 21.021 25.3742 21.1453 25.3115L21.2002 25.2829C21.287 25.2373 21.3708 25.186 21.4575 25.1347H32.3352C32.419 25.186 32.5086 25.2373 32.5953 25.2858L32.6532 25.3172C32.7688 25.377 32.8844 25.4312 33.0261 25.4939L33.0636 25.511C33.3438 25.6249 33.6341 25.7127 33.9308 25.7732L34.0205 25.7903C34.139 25.8131 34.2546 25.8302 34.3991 25.8473H34.4916C34.7907 25.8742 35.0916 25.8742 35.3906 25.8473H35.5063C35.6248 25.8473 35.7433 25.8159 35.8821 25.7903H35.9457C36.2425 25.729 36.5329 25.6403 36.8129 25.5252L36.8707 25.4996C36.9892 25.4483 37.1077 25.3913 37.2436 25.3229L37.2812 25.3029C37.3708 25.2544 37.4575 25.206 37.5413 25.1518H37.946C38.1888 25.1518 38.4028 25.1518 38.5039 25.3428C39.851 27.8054 44.8924 36.6982 44.8924 36.6982C44.8924 36.6982 46.991 37.1315 47.9796 37.1315C48.2708 37.1299 48.5611 37.1013 48.8468 37.0459C49.0423 37.0087 49.2353 36.9602 49.425 36.9006C52.1104 36.0455 53.4517 34.3354 53.6454 31.4851C53.8217 28.9854 51.6103 11.9951 47.8062 6.88171Z" fill="#353D4C"/>
<path d="M49.1417 36.0142C48.989 36.062 48.8336 36.1011 48.6763 36.1311C47.4449 36.3676 46.3493 35.9657 45.3867 35.2104C42.5423 32.9787 40.8744 27.6601 40.3396 26.6055C39.8915 25.7248 39.5504 25.0293 39.0706 24.6103C38.748 24.328 38.3281 24.178 37.8969 24.1913H37.2061C36.535 24.6754 35.725 24.9363 34.8935 24.9363C34.062 24.9363 33.2521 24.6754 32.581 24.1913H21.1396C20.4685 24.6754 19.6586 24.9363 18.827 24.9363C17.9955 24.9363 17.1856 24.6754 16.5145 24.1913H15.8641C15.6621 24.1894 15.4611 24.2193 15.2686 24.2797C14.4448 24.5448 14.0285 25.3999 13.4214 26.5998C12.878 27.6715 9.15479 36.0798 9.15479 36.0798C9.15479 36.0798 6.55316 36.2422 5.56744 36.1852C5.24741 36.1664 4.93093 36.1089 4.62507 36.0142C-0.549266 34.3895 0.815141 29.5185 2.80105 19.6623C3.35735 16.7792 4.12442 13.9396 5.09626 11.1657C5.33329 10.5101 5.56166 9.93154 5.77557 9.42704C6.07423 8.70847 6.40999 8.00544 6.78153 7.32071C6.92677 7.05619 7.14176 6.83527 7.40379 6.68125C7.66583 6.52723 7.96518 6.44584 8.27024 6.44568H14.0805C14.294 6.44574 14.5047 6.49377 14.6965 6.58613C14.8884 6.67848 15.0563 6.81273 15.1877 6.97868C15.6473 7.54873 16.1098 8.20998 17.454 8.20998H36.31C37.6541 8.20998 38.1166 7.56298 38.5763 6.97868C38.7076 6.81273 38.8756 6.67848 39.0674 6.58613C39.2592 6.49377 39.4699 6.44574 39.6834 6.44568H45.4937C45.7987 6.44584 46.0981 6.52723 46.3601 6.68125C46.6222 6.83527 46.8371 7.05619 46.9824 7.32071C47.9643 9.19916 48.7554 11.1688 49.3441 13.2008C49.4501 13.5428 49.5561 13.9 49.6621 14.2725C50.0986 15.8002 50.5293 17.5845 50.96 19.6594C52.9488 29.5185 54.3132 34.3895 49.1417 36.0142Z" fill="#353D4C"/>
<path d="M34.3153 8.20996H19.4629V13.6511H34.3153V8.20996Z" fill="#353D4C"/>
<path d="M50.9627 19.6622C50.5436 17.5873 50.0955 15.803 49.6648 14.2753C49.5055 14.4545 49.4163 14.684 49.4133 14.9223C49.4711 15.7346 49.8238 17.0571 50.0666 18.5421C50.4395 20.8223 50.9541 23.644 51.3096 26.101C50.7315 23.1766 49.8643 19.99 49.2428 18.3853C50.2834 23.4417 51.7288 32.0209 50.3355 34.2042C50.7844 33.8543 51.138 33.3999 51.3645 32.8817C50.824 34.6916 49.8065 35.2702 48.6646 36.017V36.1424C48.822 36.1124 48.9773 36.0734 49.13 36.0255C54.313 34.3895 52.9486 29.5184 50.9627 19.6622Z" fill="white"/>
<path d="M34.8992 17.4219C34.1409 17.4009 33.3935 17.6034 32.7526 18.0036C32.1117 18.4037 31.6064 18.9833 31.3013 19.6681C30.9962 20.3529 30.9053 21.1119 31.0401 21.848C31.1749 22.5841 31.5294 23.2638 32.0581 23.8002C32.5868 24.3365 33.2658 24.7052 34.0082 24.859C34.7506 25.0128 35.5226 24.9448 36.2256 24.6636C36.9285 24.3824 37.5305 23.9009 37.9543 23.2806C38.3782 22.6603 38.6048 21.9294 38.6051 21.1814C38.6124 20.6945 38.5222 20.2111 38.3399 19.7586C38.1575 19.3061 37.8865 18.8935 37.5424 18.5443C37.1982 18.1952 36.7876 17.9163 36.3341 17.7238C35.8806 17.5312 35.393 17.4286 34.8992 17.4219ZM34.8992 24.3195C34.3008 24.3359 33.7109 24.176 33.2052 23.8601C32.6994 23.5443 32.3007 23.0868 32.06 22.5463C31.8194 22.0058 31.7477 21.4068 31.8541 20.8259C31.9606 20.245 32.2404 19.7086 32.6577 19.2853C33.075 18.8621 33.6109 18.5711 34.1968 18.4498C34.7827 18.3284 35.392 18.3822 35.9468 18.6041C36.5015 18.8261 36.9765 19.2061 37.3111 19.6957C37.6456 20.1853 37.8244 20.7621 37.8246 21.3524C37.8303 21.7368 37.7592 22.1186 37.6153 22.4759C37.4714 22.8332 37.2575 23.1591 36.9858 23.4349C36.7142 23.7106 36.3901 23.931 36.0321 24.0833C35.674 24.2355 35.2891 24.3168 34.8992 24.3224V24.3195Z" fill="white"/>
<path d="M18.8329 17.422C18.0749 17.4028 17.3283 17.6068 16.6885 18.008C16.0487 18.4092 15.5447 18.9894 15.241 19.6744C14.9373 20.3594 14.8476 21.1182 14.9834 21.8537C15.1193 22.5893 15.4744 23.2682 16.0035 23.8037C16.5326 24.3392 17.2117 24.707 17.9538 24.8601C18.696 25.0132 19.4676 24.9446 20.1701 24.6631C20.8725 24.3816 21.4739 23.9 21.8974 23.2799C22.3208 22.6597 22.5472 21.9291 22.5474 21.1815C22.5547 20.694 22.4643 20.2098 22.2814 19.7568C22.0985 19.3037 21.8267 18.8907 21.4816 18.5415C21.1365 18.1922 20.7249 17.9136 20.2704 17.7215C19.8159 17.5294 19.3274 17.4276 18.8329 17.422ZM18.8329 24.3196C18.2342 24.3366 17.644 24.1771 17.1378 23.8615C16.6316 23.5458 16.2324 23.0884 15.9914 22.5478C15.7503 22.0072 15.6784 21.408 15.7848 20.8268C15.8911 20.2457 16.171 19.709 16.5884 19.2856C17.0059 18.8621 17.542 18.5711 18.1282 18.4499C18.7144 18.3286 19.3239 18.3826 19.8788 18.6048C20.4337 18.8271 20.9087 19.2076 21.243 19.6976C21.5773 20.1876 21.7557 20.7648 21.7554 21.3554C21.7662 22.1308 21.4645 22.8787 20.9166 23.435C20.3686 23.9913 19.6192 24.3105 18.8329 24.3225V24.3196Z" fill="white"/>
<path d="M47.335 35.9371C46.6759 36.0425 46.2944 35.786 45.5023 35.635C42.6579 33.4032 40.8772 27.6543 40.3424 26.6054C39.8944 25.7246 39.5533 25.0292 39.0734 24.6102C39.3611 24.1834 39.4756 23.6656 39.3943 23.1594C39.2989 22.2046 39.244 20.617 39.7036 20.198C39.4145 21.2383 39.6834 22.5609 40.4263 23.3162C41.1692 24.0715 40.5535 25.4168 40.9582 26.4514C41.3629 27.4861 43.0452 30.7268 43.4066 31.1544C43.7679 31.5819 45.6006 31.9325 45.9619 33.275C46.3233 34.6174 45.4069 34.5547 45.4069 34.5547C45.4069 34.5547 46.4823 35.9371 47.335 35.9371Z" fill="white"/>
<path d="M31.4883 24.1998H21.2321L21.2148 24.157L22.241 22.997C22.53 22.387 23.3973 22.9799 23.4955 23.1053H26.7765C27.3951 23.1053 27.5917 23.0084 27.9038 22.9998C28.216 22.9913 28.2941 22.7405 28.7711 22.8117C29.248 22.883 29.381 23.1538 29.6874 23.1538C29.9938 23.1538 30.0141 22.8374 30.5055 22.94C30.9969 23.0426 31.4883 24.1998 31.4883 24.1998Z" fill="white"/>
<path d="M49.347 13.2036L49.0117 13.5827C48.5637 11.921 46.8292 9.08216 46.095 7.92781C45.9938 7.7711 45.8553 7.64114 45.6916 7.54924C45.5279 7.45734 45.3438 7.40629 45.1555 7.40051C43.9039 7.37201 41.1086 7.31786 40.6258 7.41477C39.987 7.54018 39.1631 8.24134 38.5676 8.85699C37.9722 9.47265 37.2119 9.67502 36.998 9.00521H34.2923V11.046C34.2923 9.84033 32.951 9.64651 32.0549 9.64651C31.1588 9.64651 22.3075 9.78618 21.9519 9.64651C21.754 9.52997 21.5302 9.46283 21.3 9.45091C21.0698 9.43899 20.8401 9.48265 20.6309 9.57811C19.8764 9.82893 19.4746 9.57811 19.4746 9.57811V10.9491C19.4746 10.9491 18.5236 9.32443 18.2258 9.21327C17.9281 9.10211 17.7575 9.4983 17.5581 9.4983C17.3586 9.4983 17.217 9.14772 16.8903 9.14772C16.5637 9.14772 16.4625 9.65221 16.2197 9.62086C15.9769 9.58951 14.8437 7.96771 14.2309 7.791C13.6181 7.61428 8.84265 7.44327 7.93786 7.791C7.03307 8.13873 6.12539 9.14772 5.79586 9.88308L5.7814 9.42704C6.08005 8.70847 6.41581 8.00543 6.78736 7.32071C6.9326 7.0562 7.14759 6.83527 7.40963 6.68125C7.67166 6.52723 7.97101 6.44584 8.27607 6.44568H14.0864C14.2998 6.44574 14.5105 6.49377 14.7023 6.58613C14.8942 6.67848 15.0622 6.81273 15.1935 6.97868C15.6531 7.54873 16.1156 8.20999 17.4598 8.20999H36.3158C37.66 8.20999 38.1225 7.56298 38.5821 6.97868C38.7134 6.81273 38.8814 6.67848 39.0732 6.58613C39.2651 6.49377 39.4757 6.44574 39.6892 6.44568H45.4995C45.8036 6.44549 46.102 6.52614 46.3635 6.67913C46.625 6.83211 46.8398 7.05178 46.9853 7.31501C47.9679 9.19612 48.759 11.1686 49.347 13.2036Z" fill="white"/>
<path d="M35.2404 8.20996C35.2616 9.15054 35.278 10.0902 35.2896 11.0289V12.454C35.2892 12.7358 35.2393 13.0155 35.1421 13.2806C34.9948 13.6793 34.7459 14.0341 34.4194 14.3106C34.0929 14.5871 33.6997 14.7762 33.2776 14.8596C33.1377 14.8874 32.9955 14.9026 32.8527 14.9052H31.7976C30.8437 14.9052 29.8898 14.9052 28.9387 14.9052L26.0798 14.8881L23.2209 14.8539L21.79 14.8368L21.076 14.8197H20.891C20.8216 14.8197 20.7552 14.8197 20.6858 14.7997C20.549 14.7801 20.4145 14.7476 20.284 14.7028C20.0235 14.612 19.7852 14.4683 19.5844 14.281C19.3807 14.0928 19.2192 13.8647 19.1104 13.6112C19.0074 13.3794 18.9477 13.1313 18.934 12.8787C18.9235 12.7563 18.9235 12.6333 18.934 12.511C18.934 12.4511 18.9485 12.3913 18.96 12.3314C18.9716 12.2716 18.9803 12.2146 18.9918 12.1547C19.015 12.2716 19.0323 12.3913 19.0525 12.5053C19.075 12.618 19.1039 12.7293 19.1393 12.8388C19.1729 12.9456 19.2154 13.0495 19.2665 13.1494C19.3147 13.2486 19.3708 13.3439 19.4341 13.4345C19.6666 13.7769 20.0201 14.0218 20.4256 14.1214C20.5204 14.1445 20.6172 14.1588 20.7147 14.1641H21.0384L21.7524 14.147L23.1833 14.1299L26.0422 14.0957L28.9011 14.0786C29.8551 14.0786 30.809 14.0786 31.76 14.0786H32.8238C33.0697 14.0783 33.3125 14.0245 33.5348 13.9211C33.7572 13.8176 33.9536 13.667 34.1102 13.4801C34.2336 13.3347 34.3313 13.17 34.3992 12.9927C34.4659 12.8146 34.5021 12.6267 34.5062 12.4369V11.0317C34.5178 10.0911 34.5341 9.15149 34.5553 8.21281L35.2404 8.20996Z" fill="white"/>
<path d="M15.2685 24.2854C14.4447 24.5504 14.0284 25.4055 13.4214 26.6055C12.8924 27.6515 9.15469 36.0854 9.15469 36.0854C9.15469 36.0854 6.2958 36.2165 5.22046 36.1538C6.64846 35.9515 8.29327 35.3985 9.45822 33.0755C10.6232 30.7526 11.8864 27.6971 12.1119 27.09C12.3373 26.4829 11.7419 25.4939 13.0195 25.0749C13.2306 23.855 14.5314 23.3676 15.2685 24.2854Z" fill="white"/>
<path d="M5.56746 36.1909C5.24719 36.1702 4.93071 36.1109 4.62509 36.0142C-0.549247 34.3896 0.448042 29.0796 2.43684 19.2234C3.17975 15.5352 4.36493 13.2008 5.09917 11.1657L5.4923 10.9406C4.71181 13.2208 1.98011 23.4389 2.54669 28.3271C2.85888 26.0868 3.94578 20.7939 4.41407 19.5569C4.41407 19.5569 3.39077 26.634 3.39077 28.6064C1.32681 30.5246 1.68815 34.6832 5.56746 36.1909Z" fill="white"/>
<path d="M7.99844 5.80428V6.47124H14.332L13.7712 5.37104C13.7091 5.24955 13.6142 5.14741 13.4968 5.07595C13.3794 5.0045 13.2442 4.96655 13.1063 4.96631H8.8512C8.62669 4.96995 8.41236 5.05932 8.25331 5.21561C8.09427 5.3719 8.0029 5.58292 7.99844 5.80428Z" fill="#353D4C"/>
<path d="M47.9855 36.6184C46.9355 36.5941 45.9265 36.2124 45.1294 35.5382C42.7446 33.6684 41.2126 29.8377 40.3887 27.794C40.2066 27.338 40.0621 26.9789 39.9667 26.7936L39.9146 26.6938C39.5128 25.9015 39.1949 25.2687 38.7988 24.9324C38.5535 24.7177 38.2333 24.6053 37.9056 24.6188H37.3477C36.6277 25.1029 35.7765 25.3618 34.9051 25.3618C34.0336 25.3618 33.1824 25.1029 32.4624 24.6188H21.2754C20.5554 25.1029 19.7042 25.3618 18.8328 25.3618C17.9614 25.3618 17.1102 25.1029 16.3902 24.6188H15.8641C15.7215 24.6171 15.5794 24.6354 15.442 24.673H15.4016C14.7685 24.8782 14.4043 25.5965 13.8521 26.6853L13.803 26.7793C13.7076 26.9675 13.3087 27.3494 13.1266 27.7912C12.349 29.7265 10.2359 33.5145 9.15477 36.074C8.72984 37.0944 6.88847 36.6042 5.78133 36.6042H5.53851C5.18093 36.5813 4.82755 36.5153 4.4863 36.4075C1.99163 35.6237 0.800666 34.0902 0.618553 31.4338C0.459565 29.0196 1.11286 25.8131 2.02343 21.3781C2.14098 20.8081 2.26239 20.2095 2.38766 19.5824C2.95021 16.6814 3.72305 13.8238 4.70021 11.0317C4.92569 10.4075 5.15694 9.81463 5.3853 9.27309C5.69026 8.54099 6.03277 7.82465 6.4115 7.12685C6.59337 6.79564 6.86266 6.51907 7.19087 6.32641C7.51909 6.13374 7.89402 6.03214 8.276 6.03235H14.0863C14.3649 6.03292 14.6397 6.0958 14.89 6.21627C15.1404 6.33673 15.3598 6.51164 15.5316 6.72781L15.5779 6.78767C16.0028 7.32921 16.3699 7.79666 17.4597 7.79666H36.3157C37.4055 7.79666 37.7611 7.32921 38.1976 6.78767L38.2438 6.72781C38.4157 6.51164 38.6351 6.33673 38.8854 6.21627C39.1358 6.0958 39.4106 6.03292 39.6892 6.03235H45.4995C45.8814 6.03214 46.2564 6.13374 46.5846 6.32641C46.9128 6.51907 47.1821 6.79564 47.364 7.12685C48.3604 9.03055 49.1631 11.0269 49.7603 13.0867C49.8702 13.443 49.9771 13.805 50.0812 14.167L50.0985 14.224C50.5697 15.8771 51.0033 17.6813 51.3878 19.591C51.5131 20.2086 51.6345 20.8071 51.752 21.3867C52.6568 25.8217 53.313 29.0282 53.1482 31.4509C52.9661 34.1073 51.7751 35.6408 49.2805 36.4246C49.1117 36.4781 48.9399 36.5218 48.7659 36.5557C48.5084 36.6012 48.247 36.6222 47.9855 36.6184ZM37.076 23.7923H37.9056C38.4837 23.7923 39.1081 23.8436 39.351 24.3139C39.6949 24.958 40.4581 26.614 40.9177 27.5176C41.8832 29.4215 45.6527 35.6493 45.6527 35.6493C45.6527 35.6493 47.5808 35.9343 48.5954 35.732C48.7371 35.7049 48.877 35.6697 49.0145 35.6265C51.1536 34.9539 52.1336 33.6883 52.2897 31.3967C52.4458 29.1051 52.1625 25.6962 51.304 21.4921C51.1854 20.9221 50.8183 19.8532 50.694 19.2347C50.298 17.3165 49.7199 16.0424 49.2574 14.3978L49.24 14.3323C49.1417 13.9931 49.0406 13.6539 48.9509 13.3233C48.3703 11.3179 47.5899 9.37405 46.621 7.52018C46.5122 7.32194 46.3511 7.15637 46.1546 7.04098C45.9582 6.92558 45.7339 6.86465 45.5052 6.86462H39.6949C39.5462 6.86479 39.3995 6.89823 39.2658 6.96241C39.1321 7.02659 39.015 7.11985 38.9231 7.23516L38.8769 7.29216C38.4086 7.88786 37.8276 8.62608 36.3215 8.62608H17.4539C15.945 8.62608 15.364 7.88501 14.8986 7.29216L14.8523 7.23231C14.7605 7.117 14.6433 7.02374 14.5096 6.95956C14.3759 6.89538 14.2292 6.86194 14.0805 6.86177H8.27022C8.04159 6.8618 7.81721 6.92273 7.6208 7.03813C7.4244 7.15352 7.26326 7.31909 7.15441 7.51733C6.82776 8.10733 6.42885 7.89641 6.09931 8.67738C5.87672 9.20753 5.25233 10.4759 5.02975 11.0858C4.16254 13.4943 3.07853 15.7261 2.42813 18.9155C2.3125 19.5397 1.79217 20.7368 1.67366 21.3297C0.81512 25.5395 1.05794 29.2591 1.21404 31.5678C1.37013 33.8765 2.60157 34.9425 4.74935 35.6151C5.02305 35.7021 5.30652 35.7557 5.59344 35.7747H5.78133C6.64854 35.7747 8.69804 35.9343 8.69804 35.9343C8.69804 35.9343 11.8373 29.3617 12.5889 27.4833C12.7855 26.9903 12.93 26.6283 13.0399 26.4174L13.089 26.3233C13.6267 25.263 14.0632 24.4022 14.8437 24.0089V23.9832L15.1327 23.8892C15.3682 23.8154 15.6141 23.7788 15.8612 23.7809H16.659L16.766 23.8721C17.3632 24.3018 18.0834 24.5334 18.8227 24.5334C19.562 24.5334 20.2822 24.3018 20.8794 23.8721L20.9922 23.7923H32.7226L32.8353 23.8721C33.4327 24.3014 34.1528 24.5327 34.8921 24.5327C35.6313 24.5327 36.3514 24.3014 36.9488 23.8721L37.076 23.7923Z" fill="#353D4C"/>
<path d="M45.7654 5.80428V6.47124H39.4319L39.9927 5.37104C40.0547 5.24955 40.1497 5.14741 40.2671 5.07595C40.3845 5.0045 40.5196 4.96655 40.6576 4.96631H44.9127C45.1372 4.96995 45.3515 5.05932 45.5106 5.21561C45.6696 5.3719 45.761 5.58292 45.7654 5.80428Z" fill="#353D4C"/>
<path d="M18.8328 25.3598C17.9752 25.3598 17.1369 25.1091 16.4238 24.6393C15.7108 24.1695 15.155 23.5018 14.8268 22.7206C14.4986 21.9394 14.4128 21.0797 14.5801 20.2504C14.7474 19.421 15.1604 18.6592 15.7668 18.0613C16.3732 17.4634 17.1458 17.0562 17.9869 16.8912C18.828 16.7263 19.6998 16.8109 20.4921 17.1345C21.2844 17.4581 21.9616 18.0061 22.4381 18.7092C22.9145 19.4123 23.1688 20.2389 23.1688 21.0845C23.1688 22.2184 22.712 23.3058 21.8988 24.1076C21.0857 24.9094 19.9828 25.3598 18.8328 25.3598ZM18.8328 17.6328C18.1422 17.6328 17.467 17.8347 16.8928 18.2131C16.3185 18.5914 15.871 19.1291 15.6067 19.7583C15.3424 20.3874 15.2732 21.0797 15.4079 21.7476C15.5427 22.4155 15.8753 23.029 16.3636 23.5106C16.852 23.9921 17.4742 24.32 18.1516 24.4529C18.8289 24.5857 19.531 24.5175 20.1691 24.2569C20.8072 23.9963 21.3525 23.555 21.7362 22.9888C22.1199 22.4226 22.3247 21.7569 22.3247 21.0759C22.3232 20.1632 21.9548 19.2883 21.3003 18.6429C20.6458 17.9976 19.7585 17.6343 18.8328 17.6328Z" fill="#353D4C"/>
<path d="M34.8993 25.3598C34.0418 25.3598 33.2034 25.1091 32.4904 24.6393C31.7773 24.1695 31.2215 23.5018 30.8934 22.7206C30.5652 21.9394 30.4793 21.0797 30.6466 20.2504C30.8139 19.421 31.2269 18.6592 31.8333 18.0613C32.4397 17.4634 33.2123 17.0562 34.0534 16.8912C34.8945 16.7263 35.7664 16.8109 36.5587 17.1345C37.351 17.4581 38.0282 18.0061 38.5046 18.7092C38.9811 19.4123 39.2354 20.2389 39.2354 21.0845C39.2354 22.2184 38.7786 23.3058 37.9654 24.1076C37.1522 24.9094 36.0493 25.3598 34.8993 25.3598ZM34.8993 17.6328C34.2087 17.6328 33.5336 17.8347 32.9593 18.2131C32.3851 18.5914 31.9375 19.1291 31.6732 19.7583C31.4089 20.3874 31.3397 21.0797 31.4745 21.7476C31.6092 22.4155 31.9418 23.029 32.4302 23.5106C32.9185 23.9921 33.5407 24.32 34.2181 24.4529C34.8955 24.5857 35.5976 24.5175 36.2357 24.2569C36.8737 23.9963 37.4191 23.555 37.8028 22.9888C38.1865 22.4226 38.3913 21.7569 38.3913 21.0759C38.3898 20.1632 38.0214 19.2883 37.3668 18.6429C36.7123 17.9976 35.825 17.6343 34.8993 17.6328Z" fill="#353D4C"/>
<path d="M32.6648 14.3151H21.102C20.5564 14.3144 20.0333 14.1003 19.6475 13.7199C19.2617 13.3395 19.0446 12.8237 19.0439 12.2857V7.79089H34.7172V12.2857C34.7164 12.8227 34.5001 13.3376 34.1156 13.7179C33.731 14.0981 33.2094 14.3129 32.6648 14.3151ZM19.8966 8.63172V12.2857C19.8974 12.6007 20.0246 12.9026 20.2505 13.1253C20.4764 13.3481 20.7826 13.4735 21.102 13.4743H32.6648C32.9843 13.4735 33.2904 13.3481 33.5163 13.1253C33.7422 12.9026 33.8695 12.6007 33.8702 12.2857V8.63172H19.8966Z" fill="#353D4C"/>
<path d="M11.8979 11.8012V16.2276H10.4063V11.8012H9.1691V10.5499H13.1265V11.8012H11.8979Z" fill="white"/>
<path d="M42.6462 13.5798H45.6178C45.6193 13.8539 45.6068 14.1279 45.5803 14.4007C45.5573 14.634 45.5059 14.8636 45.4271 15.0847C45.3265 15.3689 45.179 15.6347 44.9906 15.8714C44.8103 16.0964 44.5923 16.2892 44.3459 16.4415C44.0941 16.597 43.8204 16.7151 43.5337 16.792C43.2303 16.8731 42.9172 16.9133 42.6029 16.9118C42.1838 16.9167 41.7677 16.8422 41.3772 16.6923C41.0206 16.5552 40.6967 16.3465 40.4262 16.0795C40.1563 15.8081 39.9458 15.4851 39.8076 15.1304C39.6557 14.7403 39.5801 14.3254 39.585 13.9076C39.5798 13.4921 39.6533 13.0794 39.8018 12.6905C39.9374 12.3354 40.1483 12.0128 40.4204 11.7443C40.6963 11.4777 41.025 11.2701 41.3859 11.1343C41.7883 10.9839 42.2159 10.9094 42.6462 10.9148C43.199 10.9048 43.7447 11.0395 44.2274 11.3053C44.7021 11.5842 45.0785 12.0001 45.3056 12.4967L43.8863 13.0668C43.7824 12.7992 43.599 12.5688 43.3602 12.4055C43.1449 12.2691 42.8934 12.1987 42.6375 12.2031C42.4274 12.2007 42.2193 12.2435 42.0276 12.3286C41.8455 12.4098 41.6844 12.5306 41.5564 12.682C41.4204 12.846 41.3165 13.0335 41.25 13.2349C41.1736 13.4687 41.1365 13.7133 41.1402 13.9589C41.138 14.1856 41.1702 14.4114 41.2356 14.6287C41.2942 14.8248 41.3925 15.0071 41.5246 15.1646C41.6529 15.3161 41.8152 15.4362 41.9987 15.5151C42.206 15.602 42.4296 15.6447 42.6549 15.6405C42.7989 15.6412 42.9426 15.6249 43.0827 15.5921C43.2146 15.5621 43.3399 15.509 43.4527 15.4353C43.5634 15.3611 43.6561 15.2638 43.7244 15.1503C43.8003 15.0204 43.8494 14.8771 43.869 14.7285H42.6404L42.6462 13.5798Z" fill="white"/>
<path d="M18.8531 24.3423C20.5406 24.3423 21.9085 22.9935 21.9085 21.3296C21.9085 19.6657 20.5406 18.3169 18.8531 18.3169C17.1656 18.3169 15.7976 19.6657 15.7976 21.3296C15.7976 22.9935 17.1656 24.3423 18.8531 24.3423Z" fill="#353D4C"/>
<path d="M18.8239 20.1383C18.9646 20.114 19.1091 20.1216 19.2464 20.1606C19.3836 20.1997 19.51 20.269 19.616 20.3635C19.7282 20.4616 19.8179 20.5821 19.8794 20.7169C19.9409 20.8518 19.9727 20.998 19.9727 21.1458C19.9727 21.2937 19.9409 21.4399 19.8794 21.5748C19.8179 21.7096 19.7282 21.8301 19.616 21.9282C19.5101 22.0229 19.3837 22.0923 19.2464 22.1314C19.1092 22.1704 18.9646 22.1779 18.8239 22.1534C19.0768 22.1068 19.3067 21.9785 19.4772 21.7886C19.6331 21.6097 19.7188 21.3817 19.7188 21.1458C19.7188 20.91 19.6331 20.682 19.4772 20.5031C19.3067 20.3132 19.0768 20.1849 18.8239 20.1383Z" fill="white"/>
<path d="M34.9658 24.3423C36.6533 24.3423 38.0213 22.9935 38.0213 21.3296C38.0213 19.6657 36.6533 18.3169 34.9658 18.3169C33.2783 18.3169 31.9104 19.6657 31.9104 21.3296C31.9104 22.9935 33.2783 24.3423 34.9658 24.3423Z" fill="#353D4C"/>
<path d="M34.9367 20.1383C35.0774 20.114 35.2219 20.1216 35.3591 20.1606C35.4964 20.1997 35.6228 20.269 35.7288 20.3635C35.8409 20.4616 35.9307 20.5821 35.9922 20.7169C36.0537 20.8518 36.0855 20.998 36.0855 21.1458C36.0855 21.2937 36.0537 21.4399 35.9922 21.5748C35.9307 21.7096 35.8409 21.8301 35.7288 21.9282C35.6229 22.0229 35.4965 22.0923 35.3592 22.1314C35.2219 22.1704 35.0774 22.1779 34.9367 22.1534C35.1896 22.1068 35.4195 21.9785 35.59 21.7886C35.7459 21.6097 35.8316 21.3817 35.8316 21.1458C35.8316 20.91 35.7459 20.682 35.59 20.5031C35.4195 20.3132 35.1896 20.1849 34.9367 20.1383Z" fill="white"/>
</g>
<g clip-path="url(#clip1)">
<path d="M274.035 15.9462L276.32 11.166L273.077 6.77295H253.795L251.696 11.1632L250.956 6.77295H242.282L233.583 16.8265L234.126 11.1632L230.888 6.77295H222.215L214.926 21.9383L215.957 11.1632L212.728 6.77295H200.014L202.274 10.1938L193.861 19.9103L191.089 15.9462H196.457L198.743 11.166L195.511 6.77295H181.085C177.458 6.77295 173.279 9.26057 171.821 12.2942L171.666 12.6229C171.101 11.9348 167.889 6.77295 164.662 6.77295H155.359C152.194 6.77295 148.64 8.66722 146.79 11.1632L147.558 6.77295H139.99L134.446 11.1632L132.655 6.77295H125.592L122.733 12.7315C122.168 11.9794 118.86 6.77295 115.633 6.77295H106.327C103.163 6.77295 99.6087 8.66722 97.7582 11.1632L97.6057 6.77295H77.8941L75.6057 11.5532L78.8462 15.9462H79.8125L73.1619 29.8245L76.3996 34.2176H83.4626L92.2491 15.9462H95.3144L91.3083 24.3033C90.5991 25.7797 90.6387 27.1809 91.3874 28.2283C91.9524 29.0195 94.0572 31.8191 94.6251 32.6186C95.3342 33.6298 96.7525 34.212 98.49 34.212H124.815L126.745 30.1728L128.957 28.4317L129.223 29.8245L132.463 34.2176H140.348L137.859 21.3867L144.089 16.4616L140.331 24.3061C139.622 25.7825 139.662 27.1837 140.411 28.2311C140.976 29.0223 143.08 31.8219 143.648 32.6214C144.357 33.6326 145.776 34.2148 147.513 34.2148H156.817C160.489 34.2148 164.623 31.7662 166.12 28.6936L166.264 28.3927C166.829 29.0808 170.027 34.2148 173.234 34.2148H187.665C187.917 33.6911 188.513 34.2148 188.513 34.2148H196.059L203.37 25.7157L202.981 29.8245L206.23 34.2176H265.237L267.523 29.4819L264.285 25.0833H258.496C259.01 24.837 259.572 24.704 260.143 24.6933H269.797L272.083 19.9131L268.667 15.9462H274.035ZM103.844 25.0833H103.358L106.728 18.0829C107.319 16.8767 108.898 15.9462 110.316 15.9462H110.774L107.432 22.9439C106.841 24.1111 105.265 25.0833 103.844 25.0833ZM179.661 25.0833H178.116C179.735 21.7126 181.65 17.6956 182.498 15.9462H184.023L179.661 25.0833ZM152.873 25.0833H152.387L155.757 18.0829C156.348 16.8767 157.927 15.9462 159.345 15.9462H159.803L156.463 22.9439C155.87 24.1111 154.294 25.0833 152.875 25.0833H152.873ZM237.084 20.9048L254.9 15.6119C253.717 15.7958 252.572 16.1664 251.509 16.7095L237.084 20.9048Z" fill="#353D4C"/>
<path d="M95.3201 11.5532H89.0114L80.2249 29.8246H73.1619L81.9201 11.5532H75.6057L77.8941 6.77295H97.6057L95.3201 11.5532Z" fill="white"/>
<path d="M115.633 6.77295C119.306 6.77295 121.075 9.26057 119.614 12.3443L113.845 24.3061C112.348 27.3704 108.195 29.8273 104.542 29.8273H95.2494C93.5035 29.8245 92.0909 29.2423 91.3846 28.2228C90.6783 27.2032 90.5963 25.7742 91.3054 24.2977L97.0632 12.2942C98.5606 9.26057 102.702 6.77295 106.327 6.77295H115.633ZM103.844 25.0833C105.256 25.0833 106.841 24.1111 107.432 22.9467L111.848 13.6954C112.438 12.4892 111.768 11.5588 110.35 11.5588H107.065C105.652 11.5588 104.067 12.492 103.476 13.6954L99.0352 22.9439C98.4702 24.1111 99.1539 25.0805 100.572 25.0805L103.844 25.0833Z" fill="white"/>
<path d="M134.627 16.9964L137.111 29.8246H129.225L127.813 22.4007L123.507 25.7825L121.575 29.8246H114.512L125.598 6.77295H132.661L128.16 16.1412L139.99 6.77295H147.558L134.627 16.9964Z" fill="white"/>
<path d="M164.662 6.77295C168.335 6.77295 170.104 9.26057 168.643 12.3443L162.888 24.3228C161.391 27.3871 157.237 29.844 153.584 29.844H144.278C142.544 29.844 141.125 29.2618 140.413 28.2506C139.701 27.2394 139.625 25.802 140.334 24.3256L146.089 12.3137C147.592 9.26057 151.731 6.77295 155.359 6.77295H164.662ZM152.875 25.0833C154.288 25.0833 155.873 24.1111 156.463 22.9467L160.879 13.6954C161.47 12.4892 160.8 11.5588 159.382 11.5588H156.107C154.695 11.5588 153.11 12.492 152.519 13.6954L148.064 22.9439C147.499 24.1111 148.183 25.0805 149.601 25.0805L152.875 25.0833Z" fill="white"/>
<path d="M179.269 11.5532C177.966 14.2358 174.144 22.2447 172.771 25.0805H179.673L184.235 15.52H191.298C190.51 17.1524 185.148 28.3481 184.439 29.8273H170.002C166.374 29.8273 164.6 27.3787 166.046 24.3061C167.23 21.8575 170.66 14.7428 171.801 12.2942C173.276 9.26057 177.455 6.77295 181.085 6.77295H195.516L193.234 11.5532H179.269Z" fill="white"/>
<path d="M212.728 6.77295L210.521 29.8246H202.981L204.252 16.5702L192.807 29.8246H185.278L202.274 10.1938L200.014 6.77295H212.728Z" fill="white"/>
<path d="M250.956 6.77295L239.878 29.8246H232.787L237.951 19.1331L228.679 29.8246H222.333L223.359 19.1331L218.231 29.8246H211.134L222.215 6.77295H230.888L229.475 21.5845L242.282 6.77295H250.956Z" fill="white"/>
<path d="M256.202 15.52H268.859L266.573 20.3003H256.911C255.499 20.3003 253.916 21.2725 253.323 22.4369L252.06 25.0805H264.282L261.997 29.8162H242.717L246.935 21.0691C248.396 18.0076 252.535 15.52 256.202 15.52ZM273.077 6.77295L270.791 11.5532H251.509L253.795 6.77295H273.077Z" fill="white"/>
<path d="M268.243 30.6408L271.608 33.8861L273.786 31.379L270.825 28.3481L268.243 30.6408Z" fill="#353D4C"/>
<path d="M269.602 27.9053C268.658 27.9053 267.986 28.5961 267.986 29.5767C267.986 30.5573 268.633 31.2481 269.577 31.2481C270.574 31.2481 271.193 30.5294 271.193 29.5767C271.193 28.624 270.543 27.9053 269.602 27.9053Z" fill="#353D4C"/>
<path d="M272.571 30.8329C271.628 30.8329 270.955 31.5237 270.955 32.5043C270.955 33.4849 271.602 34.1757 272.546 34.1757C273.543 34.1757 274.162 33.457 274.162 32.5043C274.162 31.5516 273.512 30.8329 272.571 30.8329Z" fill="#353D4C"/>
<path d="M331.031 15.2052H325.098L320.001 21.1025L320.284 18.133L317.317 15.2052H311.384L309.709 18.6901C309.562 18.5926 307.553 16.6538 307.31 16.3083C307.045 15.9452 306.68 15.6641 306.259 15.4977C305.741 15.2966 305.186 15.2018 304.629 15.2191H298.275C297.632 15.2173 296.992 15.3112 296.377 15.4977C295.738 15.6926 295.127 15.9649 294.557 16.3083C293.992 16.6462 293.472 17.0524 293.009 17.5173C292.817 17.7107 292.639 17.9164 292.475 18.133L291.873 15.2052H279.555L273.789 27.1837C273.555 27.6404 273.435 28.1456 273.439 28.6573C273.449 29.0845 273.584 29.4996 273.829 29.8524C274.072 30.1978 276.555 32.4347 276.798 32.7801C277.063 33.1435 277.427 33.4247 277.849 33.5908C278.367 33.7921 278.922 33.8869 279.479 33.8693H287.265L288.828 30.6017L285.861 27.6907H282.77L285.788 21.4006H290.783L288.011 27.1865C287.508 28.232 287.526 29.1262 288.065 29.8691C288.316 30.2229 290.647 32.262 291.034 32.7968C291.301 33.1636 291.672 33.4454 292.099 33.6075C292.601 33.8013 293.137 33.8959 293.676 33.886H326.428L334 18.1302L331.031 15.2052ZM298.018 27.2672C297.703 27.4634 297.353 27.5986 296.987 27.6656L299.303 22.8686C299.525 22.4265 299.875 22.0597 300.309 21.8156C300.619 21.6282 300.961 21.4988 301.318 21.434L299.024 26.2254C298.801 26.6633 298.451 27.026 298.018 27.2672Z" fill="#353D4C"/>
<path d="M267.983 29.5767C267.983 28.5933 268.656 27.9053 269.599 27.9053C270.543 27.9053 271.19 28.5961 271.19 29.5767C271.19 30.5572 270.571 31.2481 269.574 31.2481C268.63 31.2509 267.983 30.535 267.983 29.5767Z" fill="white"/>
<path d="M282.816 18.4728L278.397 27.6907H285.861L284.299 30.9583C284.299 30.9583 275.34 30.8608 274.882 30.6797C274.461 30.5135 274.096 30.2323 273.831 29.8691C273.587 29.5164 273.451 29.1012 273.442 28.674C273.438 28.1623 273.558 27.6571 273.792 27.2004L279.558 15.2219H291.873L290.28 18.4728H282.816Z" fill="white"/>
<path d="M304.635 15.2053C305.192 15.1879 305.746 15.2827 306.265 15.4838C306.686 15.6502 307.051 15.9314 307.316 16.2945C307.562 16.6517 307.697 17.0717 307.706 17.5035C307.711 18.0198 307.591 18.5298 307.355 18.991L303.417 27.1865C303.152 27.7354 302.792 28.2342 302.352 28.6602C301.886 29.1178 301.366 29.5189 300.804 29.8552C300.229 30.2003 299.613 30.4726 298.97 30.6659C298.35 30.8519 297.705 30.9458 297.057 30.9444H290.704C290.165 30.9543 289.629 30.8597 289.127 30.6659C288.7 30.5037 288.329 30.222 288.062 29.8552C287.523 29.1124 287.505 28.2182 288.008 27.1726L291.941 18.9632C292.213 18.4226 292.573 17.9295 293.006 17.5035C293.469 17.0385 293.989 16.6324 294.554 16.2945C295.124 15.9511 295.736 15.6788 296.374 15.4838C296.989 15.2973 297.629 15.2034 298.272 15.2053H304.635ZM296.577 27.6907C297.088 27.6833 297.587 27.5368 298.018 27.2673C298.452 27.0292 298.804 26.6695 299.029 26.2338L302.047 19.9298C302.144 19.7746 302.196 19.5956 302.196 19.4131C302.196 19.2305 302.144 19.0515 302.047 18.8963C301.926 18.7468 301.769 18.6297 301.59 18.5557C301.412 18.4817 301.217 18.4532 301.024 18.4729H298.786C298.276 18.4804 297.777 18.627 297.346 18.8963C296.912 19.1343 296.56 19.4941 296.334 19.9298L293.289 26.2338C293.188 26.3881 293.135 26.5674 293.135 26.7506C293.135 26.9337 293.188 27.1131 293.289 27.2673C293.413 27.4164 293.573 27.533 293.753 27.6068C293.934 27.6807 294.131 27.7095 294.325 27.6907H296.577Z" fill="white"/>
<path d="M331.031 15.2053L323.459 30.9612H318.611L322.14 23.6543L315.808 30.9584H311.469L312.175 23.6543L308.672 30.9612H303.818L311.39 15.2053H317.323L316.348 25.3257L325.106 15.2025H331.039L331.031 15.2053Z" fill="white"/>
</g>
<defs>
<clipPath id="clip0">
<rect width="54.0762" height="39" fill="white" transform="translate(0 0.5)"/>
</clipPath>
<clipPath id="clip1">
<rect width="260.838" height="27.4446" fill="white" transform="translate(73.1619 6.77295)"/>
</clipPath>
</defs>
</svg>
