<svg width="24" height="24" viewBox="0 0 24 24" fill="none" xmlns="http://www.w3.org/2000/svg">
<path fill-rule="evenodd" clip-rule="evenodd" d="M17.2808 0C20.9129 0 23.8676 2.95482 23.8676 6.58659V17.281C23.8676 20.9128 20.9129 23.8676 17.2808 23.8676H6.58645C2.95468 23.8676 0 20.9129 0 17.281V6.58659C0 2.95482 2.95468 0 6.58645 0H17.2808ZM17.2808 2.11765H6.58645C4.12235 2.11765 2.11765 4.12249 2.11765 6.58659V17.281C2.11765 19.7452 4.12235 21.7499 6.58645 21.7499H17.281C19.7452 21.7499 21.7501 19.7452 21.7501 17.281V6.58659C21.7501 4.12249 19.7451 2.11765 17.2808 2.11765ZM11.9338 5.784C15.325 5.784 18.0839 8.54287 18.0839 11.9341C18.0839 15.3251 15.325 18.0839 11.9338 18.0839C8.54259 18.0839 5.78372 15.3251 5.78372 11.9341C5.78372 8.54287 8.54259 5.784 11.9338 5.784ZM11.9338 7.90151C9.71026 7.90151 7.90137 9.7104 7.90137 11.9339C7.90137 14.1573 9.7104 15.9661 11.9338 15.9661C14.1572 15.9661 15.9662 14.1573 15.9662 11.9339C15.9662 9.7104 14.1573 7.90151 11.9338 7.90151ZM18.3418 3.98838C18.7512 3.98838 19.1521 4.15355 19.4401 4.44296C19.7296 4.73096 19.8947 5.13191 19.8947 5.54132C19.8947 5.94932 19.7296 6.35026 19.4401 6.63967C19.1507 6.92767 18.7512 7.09426 18.3418 7.09426C17.9338 7.09426 17.5328 6.92767 17.2448 6.63967C16.9554 6.35026 16.7888 5.94946 16.7888 5.54132C16.7888 5.13191 16.9553 4.73096 17.2448 4.44296C17.533 4.15355 17.9338 3.98838 18.3418 3.98838Z" fill="#05CE78"/>
</svg>
