<svg width="34" height="25" viewBox="0 0 34 25" fill="none" xmlns="http://www.w3.org/2000/svg">
<g clip-path="url(#clip0)">
<path d="M2.45413 25V12.7217L2.67526 12.6381L34 0.886658V13.1637L33.7789 13.2472L2.45413 25ZM3.16481 13.1624V24.0298L33.2893 12.7217V1.85942L3.16481 13.1624Z" fill="#05CE78"/>
<path d="M0.251804 11.5703V23.1406L31.087 11.5703V0L0.251804 11.5703Z" fill="#05CE78"/>
<path d="M30.0568 4.09021C29.8011 3.73811 29.4995 3.42072 29.0892 3.2935C29.0633 3.08509 28.9627 2.89333 28.8062 2.75421C28.6497 2.61509 28.4481 2.53817 28.2392 2.53791H25.5639C25.4171 2.53733 25.2732 2.57807 25.1482 2.65551C25.0233 2.73295 24.9225 2.84401 24.8571 2.9761L24.7292 3.2331C24.3583 3.29145 24.0231 3.48887 23.7911 3.78566L23.7617 3.82421C23.506 4.14932 23.3603 4.34593 22.8324 4.34593H10.9733C10.4454 4.34593 10.2946 4.14932 10.0441 3.82421L10.0147 3.78566C9.78154 3.49042 9.44589 3.29484 9.07518 3.23824L8.94737 2.98124C8.88208 2.84934 8.78141 2.73842 8.65674 2.66099C8.53207 2.58356 8.38835 2.54271 8.2418 2.54305H5.56398C5.35515 2.54359 5.15367 2.6206 4.99722 2.75967C4.84078 2.89873 4.74009 3.09034 4.71398 3.29864C4.30418 3.43411 3.95924 3.71813 3.74639 4.09535C-0.292711 10.9406 -0.0997032 17.9902 0.0715751 19.8561C0.239019 21.6821 1.03789 22.7898 2.72639 23.3256C2.96409 23.4102 3.21321 23.4578 3.46518 23.467C5.75571 23.467 6.04458 22.9041 6.04458 22.9041C6.04458 22.9041 7.7727 18.8499 9.59669 15.7607L10.2077 15.7787C10.2601 15.8121 10.315 15.843 10.3687 15.8738L10.4096 15.8957C10.4799 15.9329 10.5528 15.9689 10.6333 16.0036L10.6678 16.0177C10.841 16.0923 11.0207 16.1504 11.2047 16.1912L11.2635 16.2028C11.3363 16.2169 11.4104 16.2285 11.4999 16.2388H11.5587C11.7466 16.2562 11.9358 16.2562 12.1237 16.2388L12.1965 16.231C12.2707 16.2221 12.3448 16.2105 12.4343 16.1938L12.4739 16.1861C12.6581 16.147 12.8383 16.0907 13.012 16.0177L13.0542 15.9997C13.1271 15.9676 13.1986 15.9329 13.2766 15.8918L13.3111 15.8738C13.3648 15.8443 13.4198 15.8121 13.4722 15.7787H20.3105C20.3642 15.8121 20.4192 15.8443 20.4741 15.8751L20.5112 15.8944C20.5828 15.9329 20.6569 15.9689 20.7451 16.0075L20.7694 16.0177C20.9436 16.0905 21.1242 16.1469 21.3088 16.1861L21.3638 16.1964C21.4379 16.2105 21.512 16.2221 21.6015 16.2323H21.659C21.847 16.2496 22.0361 16.2496 22.224 16.2323L22.2968 16.2246C22.371 16.2156 22.4451 16.2041 22.5333 16.1874L22.5742 16.1796C22.7597 16.1403 22.9412 16.0835 23.1162 16.01L23.152 15.9946C23.2274 15.9612 23.3015 15.9265 23.3859 15.8802L23.4089 15.8674C23.4638 15.8365 23.5188 15.8044 23.5725 15.771H23.8281C23.9815 15.771 24.1144 15.771 24.1796 15.8931C25.0565 17.4904 28.2238 23.1856 28.2238 23.1856C28.2238 23.1856 29.5442 23.4631 30.1654 23.4631C30.3508 23.4629 30.5357 23.4448 30.7176 23.4092C30.839 23.3854 30.9589 23.3545 31.0768 23.3166C32.7653 22.7756 33.6089 21.6718 33.7316 19.8471C33.8377 18.2614 32.4483 7.36829 30.0568 4.09021Z" fill="#353D4C"/>
<path d="M30.8978 22.7654C30.8018 22.7963 30.7041 22.8217 30.6051 22.8412C29.8305 22.9928 29.1416 22.7345 28.537 22.2513C26.7475 20.8211 25.6994 17.412 25.3632 16.7361C25.082 16.1707 24.8673 15.7247 24.5656 15.4613C24.3626 15.2802 24.0982 15.1841 23.8268 15.1928H23.391C22.9695 15.5018 22.4613 15.6683 21.9396 15.6683C21.4179 15.6683 20.9097 15.5018 20.4882 15.1928H13.2932C12.8719 15.5017 12.3639 15.6682 11.8425 15.6682C11.321 15.6682 10.813 15.5017 10.3917 15.1928H9.96992C9.84289 15.1915 9.71646 15.2106 9.59541 15.2493C9.08158 15.4202 8.81955 15.9676 8.43609 16.7348C8.09481 17.4223 5.75188 22.8129 5.75188 22.8129C5.75188 22.8129 4.11195 22.9183 3.49586 22.8797C3.29339 22.8664 3.09334 22.8279 2.90022 22.7654C-0.345116 21.7258 0.511275 18.6019 1.76135 12.2848C2.11152 10.4364 2.59423 8.61591 3.20571 6.83758C3.35526 6.41738 3.49714 6.04729 3.63263 5.72347C3.81994 5.26144 4.03069 4.80938 4.26406 4.36906C4.35541 4.19965 4.49056 4.05818 4.65523 3.95957C4.81991 3.86095 5.00802 3.80886 5.1997 3.80879H8.85278C8.9871 3.80876 9.11967 3.83953 9.24038 3.89877C9.36109 3.958 9.46678 4.04413 9.5494 4.15061C9.83827 4.52455 10.1284 4.93961 10.9746 4.93961H22.8286C23.6735 4.93961 23.9636 4.52455 24.2538 4.15061C24.3363 4.04406 24.442 3.95787 24.5627 3.89863C24.6834 3.8394 24.816 3.80867 24.9504 3.80879H28.6022C28.7941 3.80863 28.9824 3.86061 29.1474 3.95924C29.3123 4.05786 29.4476 4.19946 29.5391 4.36906C29.8778 4.99743 30.4338 6.18993 31.0244 8.1393C31.0908 8.35861 31.1577 8.58734 31.225 8.8255C31.4998 9.80468 31.7772 10.9496 32.0405 12.2783C33.2906 18.6019 34.147 21.7258 30.8978 22.7654Z" fill="#353D4C"/>
<path d="M21.5747 4.94347H12.2374V8.431H21.5747V4.94347Z" fill="#353D4C"/>
<path d="M32.0405 12.2848C31.7772 10.9548 31.4999 9.81111 31.225 8.83192C31.1241 8.94843 31.0683 9.09761 31.0678 9.25212C31.1036 9.77256 31.3235 10.6207 31.4781 11.5716C31.712 13.0352 32.0354 14.8419 32.2604 16.4174C31.9012 14.5425 31.3567 12.4994 30.9605 11.4713C31.6149 14.7134 32.5237 20.2095 31.6481 21.6127C31.9307 21.3883 32.1534 21.0969 32.2962 20.7646C31.9562 21.9211 31.3171 22.295 30.6 22.7666V22.8463C30.699 22.8268 30.7967 22.8015 30.8927 22.7705C34.147 21.7258 33.2906 18.6019 32.0405 12.2848Z" fill="white"/>
<path d="M21.9415 10.8481C21.4645 10.8345 20.9944 10.9644 20.5912 11.2209C20.188 11.4775 19.8702 11.8492 19.6783 12.2884C19.4864 12.7276 19.4292 13.2144 19.5141 13.6864C19.5989 14.1585 19.8219 14.5944 20.1545 14.9383C20.4871 15.2822 20.9143 15.5186 21.3813 15.6171C21.8482 15.7157 22.3338 15.6719 22.7759 15.4914C23.218 15.3109 23.5965 15.0019 23.863 14.604C24.1294 14.206 24.2717 13.7372 24.2716 13.2575C24.2802 12.6274 24.0395 12.0197 23.6026 11.5679C23.1657 11.1162 22.5682 10.8572 21.9415 10.8481ZM21.9415 15.2698C21.5652 15.2816 21.194 15.1802 20.8754 14.9787C20.5567 14.7772 20.3052 14.4847 20.1528 14.1386C20.0005 13.7925 19.9543 13.4086 20.0202 13.036C20.0861 12.6634 20.2611 12.319 20.5228 12.0469C20.7845 11.7749 21.1209 11.5875 21.4891 11.5087C21.8574 11.43 22.2406 11.4635 22.5897 11.6049C22.9389 11.7464 23.2382 11.9893 23.4492 12.3027C23.6602 12.6161 23.7735 12.9857 23.7744 13.3642C23.7823 13.8611 23.5937 14.3409 23.2501 14.6982C22.9064 15.0555 22.4358 15.2611 21.9415 15.2698Z" fill="white"/>
<path d="M11.8399 10.8481C11.363 10.8345 10.8928 10.9644 10.4896 11.2209C10.0865 11.4775 9.7686 11.8492 9.57672 12.2884C9.38483 12.7276 9.32765 13.2144 9.41248 13.6864C9.49732 14.1585 9.72031 14.5944 10.0529 14.9383C10.3856 15.2822 10.8127 15.5186 11.2797 15.6171C11.7467 15.7157 12.2323 15.6719 12.6744 15.4914C13.1165 15.3109 13.4949 15.0019 13.7614 14.604C14.0278 14.206 14.1701 13.7372 14.1701 13.2575C14.1786 12.6274 13.938 12.0197 13.501 11.5679C13.0641 11.1162 12.4666 10.8572 11.8399 10.8481ZM11.8399 15.2698C11.4638 15.2808 11.0929 15.1788 10.7748 14.9768C10.4566 14.7748 10.2056 14.482 10.0539 14.1358C9.90214 13.7896 9.85652 13.4058 9.92288 13.0334C9.98924 12.6611 10.1645 12.3171 10.4264 12.0454C10.6883 11.7737 11.0248 11.5867 11.3929 11.5083C11.761 11.4299 12.144 11.4636 12.493 11.6052C12.8419 11.7468 13.1409 11.9898 13.3518 12.3031C13.5626 12.6164 13.6758 12.9859 13.6767 13.3642C13.6806 13.6105 13.6362 13.8553 13.5459 14.0844C13.4557 14.3135 13.3215 14.5225 13.151 14.6995C12.9804 14.8765 12.7768 15.0179 12.5519 15.1158C12.3269 15.2136 12.085 15.266 11.8399 15.2698Z" fill="white"/>
<path d="M29.7602 22.7165C29.3461 22.7833 29.1058 22.6189 28.6098 22.5238C26.8204 21.0935 25.7019 17.412 25.3658 16.7412C25.0846 16.1758 24.8698 15.7299 24.5682 15.4665C24.5682 15.4665 24.8238 15.1491 24.7701 14.5361C24.7165 13.9232 24.6692 12.9016 24.9619 12.6317C24.788 13.2986 24.9491 14.1467 25.4169 14.6312C25.8847 15.1157 25.4974 15.9779 25.7518 16.6371C26.0062 17.2963 27.0645 19.3703 27.2856 19.653C27.5068 19.9357 28.6648 20.1516 28.8923 21.0126C29.1198 21.8736 28.5447 21.8337 28.5447 21.8337C28.5447 21.8337 29.2247 22.7165 29.7602 22.7165Z" fill="white"/>
<path d="M19.798 15.1928H13.3482L13.338 15.1581L13.9771 14.414C14.1547 14.0285 14.712 14.4038 14.7657 14.4834H16.8338C17.2173 14.4834 17.3451 14.4205 17.5432 14.4166C17.7413 14.4127 17.7886 14.2508 18.0826 14.2958C18.3766 14.3408 18.4661 14.5156 18.6578 14.5156C18.8495 14.5156 18.8636 14.3125 19.1691 14.3781C19.4746 14.4436 19.798 15.1928 19.798 15.1928Z" fill="white"/>
<path d="M31.0244 8.14316L30.8135 8.38602C30.531 7.3246 29.442 5.50245 28.9818 4.75457C28.9189 4.65312 28.8318 4.569 28.7285 4.50978C28.6252 4.45056 28.5089 4.4181 28.39 4.41532C27.6026 4.39605 25.8515 4.36264 25.5422 4.4256C25.1408 4.50656 24.6232 4.95503 24.2486 5.34953C23.8741 5.74403 23.3961 5.8751 23.2619 5.44334H21.5619V6.76562C21.5619 5.99461 20.7183 5.86611 20.1559 5.86611C19.5935 5.86611 14.0282 5.95606 13.8045 5.86611C13.5808 5.77616 13.4479 5.6605 12.975 5.82113C12.502 5.98176 12.2426 5.81214 12.2426 5.81214V6.69109C12.2426 6.69109 11.6444 5.65022 11.4565 5.57826C11.2686 5.5063 11.1625 5.75817 11.0372 5.75817C10.912 5.75817 10.8225 5.53329 10.618 5.53329C10.4135 5.53329 10.3534 5.86739 10.1974 5.8494C10.0415 5.83141 9.33083 4.79055 8.94737 4.67618C8.56391 4.56182 5.56015 4.45387 4.98496 4.67618C4.40977 4.89849 3.84609 5.54485 3.63902 6.01645L3.62624 5.72218C3.81567 5.26047 4.02855 4.80883 4.26406 4.36906C4.35545 4.19931 4.49075 4.05753 4.65566 3.95869C4.82058 3.85985 5.00898 3.80761 5.20098 3.80751H8.85278C8.98711 3.80748 9.11967 3.83825 9.24038 3.89748C9.36109 3.95672 9.46678 4.04285 9.5494 4.14933C9.83827 4.52326 10.1284 4.93833 10.9746 4.93833H22.8286C23.6735 4.93833 23.9636 4.52326 24.2538 4.14933C24.3363 4.04278 24.442 3.95659 24.5627 3.89735C24.6834 3.83811 24.816 3.80738 24.9504 3.80751H28.6022C28.7938 3.8078 28.9818 3.86014 29.1462 3.95898C29.3107 4.05783 29.4456 4.19952 29.5365 4.36906C29.8765 4.99744 30.4326 6.18993 31.0244 8.14316Z" fill="white"/>
<path d="M22.1562 4.94347C22.1699 5.54314 22.1801 6.14581 22.1869 6.75148L22.1959 7.65742C22.1958 7.83791 22.1647 8.01703 22.1038 8.18685C22.0113 8.44255 21.8549 8.67001 21.6496 8.84735C21.4443 9.02469 21.1971 9.14594 20.9317 9.19944C20.8437 9.21735 20.7543 9.22725 20.6646 9.229H19.9846C19.3851 9.229 18.7856 9.229 18.1862 9.229L16.3877 9.21743L14.5893 9.19558L13.6946 9.18531C13.545 9.18531 13.3955 9.18531 13.2447 9.17502H13.1283C13.0849 9.17502 13.0427 9.17502 13.0005 9.16346C12.9135 9.15077 12.8279 9.12968 12.7449 9.10049C12.5812 9.04241 12.4314 8.95049 12.3052 8.83064C12.1807 8.71121 12.0819 8.5673 12.015 8.40787C11.9506 8.25901 11.9133 8.09969 11.9051 7.93755C11.8985 7.85931 11.8985 7.78064 11.9051 7.7024C11.9051 7.66385 11.9153 7.6253 11.9217 7.58803C11.9281 7.55076 11.9345 7.51221 11.9422 7.47495C11.9562 7.54948 11.9677 7.62658 11.9805 7.69983C11.9948 7.77192 12.0132 7.84314 12.0355 7.91314C12.0568 7.98165 12.0838 8.04827 12.116 8.11232C12.1463 8.1749 12.1813 8.23505 12.2208 8.29222C12.3671 8.51194 12.5894 8.66907 12.8446 8.73298C12.9058 8.74837 12.9682 8.75783 13.0312 8.76125C13.0632 8.76125 13.0938 8.76125 13.1258 8.76125H13.2344C13.384 8.76125 13.5335 8.75354 13.6844 8.75097L14.5791 8.7394L16.3775 8.71756L18.1759 8.70599C18.7754 8.70599 19.3749 8.70599 19.9744 8.70599H20.6429C20.7934 8.7034 20.9415 8.66832 21.0774 8.60314C21.2132 8.53796 21.3336 8.4442 21.4302 8.3282C21.5077 8.23507 21.5691 8.12952 21.6117 8.01594C21.6537 7.90185 21.6766 7.78158 21.6795 7.65999L21.6884 6.76048C21.6961 6.1608 21.7063 5.55813 21.7191 4.95246L22.1562 4.94347Z" fill="white"/>
<path d="M9.60053 15.248C9.08158 15.4202 8.81955 15.9676 8.43609 16.7348C8.10376 17.4043 5.75188 22.8129 5.75188 22.8129C5.75188 22.8129 3.95346 22.8977 3.27857 22.8566C4.17331 22.7281 5.2112 22.3721 5.94361 20.8828C6.67602 19.3935 7.46978 17.4351 7.61293 17.0406C7.75609 16.6461 7.3803 16.0126 8.18429 15.7479C8.3185 14.9717 9.13654 14.6582 9.60053 15.248Z" fill="white"/>
<path d="M3.50097 22.8797C3.29851 22.8664 3.09845 22.8279 2.90533 22.7654C-0.345116 21.7258 0.282478 18.3192 1.53383 12.0021C2.00165 9.63891 2.74556 8.147 3.20699 6.83757L3.45112 6.69365C2.9603 8.156 1.2424 14.7057 1.6003 17.8309C1.79714 16.3942 2.4797 13.0031 2.77496 12.2089C2.77496 12.2089 2.13586 16.7451 2.13586 18.0108C0.834659 19.2483 1.0609 21.9121 3.50097 22.8797Z" fill="white"/>
<path d="M5.0297 3.40015V3.82807H9.01128L8.65849 3.12259C8.61905 3.04499 8.559 2.9799 8.48499 2.93454C8.41099 2.88917 8.32592 2.8653 8.23925 2.86559H5.56526C5.42388 2.86558 5.28824 2.92178 5.18791 3.02192C5.08758 3.12206 5.03071 3.25803 5.0297 3.40015Z" fill="#353D4C"/>
<path d="M30.1654 23.1534C29.548 23.1534 28.946 22.9221 28.3759 22.4621C26.8766 21.2632 25.9129 18.8139 25.3952 17.4981C25.2802 17.2064 25.1894 16.9763 25.1306 16.8556L25.0986 16.7913C24.843 16.2773 24.6462 15.8815 24.3969 15.6631C24.2426 15.525 24.0409 15.4527 23.8345 15.4613H23.4843C23.0317 15.7701 22.4974 15.9351 21.9505 15.9351C21.4035 15.9351 20.8692 15.7701 20.4166 15.4613H13.3865C12.934 15.7702 12.3997 15.9354 11.8527 15.9354C11.3057 15.9354 10.7714 15.7702 10.3189 15.4613H9.96992C9.88012 15.4602 9.7906 15.4718 9.70406 15.496L9.6785 15.505C9.2797 15.6335 9.0509 16.0974 8.70451 16.79L8.67383 16.8504C8.61376 16.9699 8.36323 17.2077 8.24819 17.4929C7.76504 18.7445 6.42932 21.1719 5.75188 22.8129C5.48474 23.467 4.32797 23.1534 3.63135 23.1534C3.5815 23.1534 3.53037 23.1534 3.47925 23.1534C3.25457 23.1379 3.03264 23.0948 2.81842 23.0249C1.25646 22.5199 0.511276 21.5369 0.392404 19.8342C0.28887 18.2819 0.700449 16.2272 1.26925 13.3834C1.34338 13.0116 1.42007 12.6261 1.49932 12.2269C1.85289 10.3679 2.33858 8.53679 2.95263 6.74761C3.09451 6.34669 3.24022 5.96761 3.38466 5.61937C3.57443 5.15048 3.78773 4.69157 4.02376 4.2444C4.13807 4.03209 4.30735 3.85479 4.51368 3.73128C4.72001 3.60777 4.95572 3.54264 5.19586 3.54278H8.85278C9.02731 3.54275 9.19959 3.58238 9.35674 3.6587C9.51389 3.73503 9.65185 3.84607 9.7603 3.98354L9.7897 4.02209C10.0568 4.36905 10.2882 4.6646 10.9733 4.6646H22.8286C23.5137 4.6646 23.745 4.36519 24.0122 4.02209L24.0416 3.98354C24.1497 3.84496 24.2876 3.73283 24.445 3.6556C24.6024 3.57836 24.7752 3.53803 24.9504 3.53764H28.6022C28.8425 3.53762 29.0783 3.60295 29.2846 3.72669C29.4909 3.85044 29.6601 4.02799 29.7743 4.24055C30.1373 4.91261 30.6933 6.12053 31.2813 8.05962C31.3503 8.28707 31.418 8.51965 31.4832 8.75096L31.4935 8.78694C31.79 9.84707 32.0623 11.0036 32.3051 12.2269C32.3835 12.6236 32.4602 13.0091 32.5352 13.3834C33.1053 16.2272 33.5156 18.2819 33.412 19.8342C33.2983 21.5369 32.548 22.5199 30.9835 23.0224C30.8774 23.0564 30.7694 23.0843 30.6601 23.1059C30.4971 23.1378 30.3314 23.1537 30.1654 23.1534ZM23.3053 14.9229H23.8281C24.1873 14.9229 24.5848 14.955 24.7433 15.257C24.9593 15.6695 25.4399 16.7309 25.7275 17.313C26.3347 18.5338 28.7044 22.525 28.7044 22.525C28.7044 22.525 29.9174 22.7037 30.554 22.579C30.643 22.5615 30.7309 22.5387 30.8173 22.5109C32.162 22.0804 32.778 21.2696 32.8765 19.7995C32.9749 18.3295 32.7972 16.1488 32.2565 13.4515C32.1824 13.0802 31.9511 12.4004 31.8731 12.0033C31.6315 10.7839 31.2659 9.9653 30.9694 8.91158L30.9579 8.86661C30.8965 8.64944 30.8301 8.43227 30.7687 8.2241C30.1935 6.32484 29.6541 5.15162 29.3039 4.49755C29.2356 4.37062 29.1344 4.26458 29.0112 4.19062C28.8879 4.11667 28.747 4.07753 28.6035 4.07735H24.9504C24.8568 4.07747 24.7645 4.09892 24.6803 4.1401C24.5962 4.18128 24.5225 4.2411 24.4647 4.31508L24.4353 4.35234C24.1413 4.73785 23.7757 5.20816 22.8286 5.20816H10.9746C10.0262 5.20816 9.6606 4.73399 9.3679 4.35234L9.3385 4.31508C9.28069 4.2411 9.20694 4.18128 9.12281 4.1401C9.03868 4.09892 8.94635 4.07747 8.85278 4.07735H5.1997C5.05614 4.07753 4.91528 4.11667 4.792 4.19062C4.66872 4.26458 4.56758 4.37062 4.49925 4.49755C4.29474 4.88306 4.04293 4.74042 3.83586 5.24158C3.69526 5.58082 3.30286 6.39809 3.16353 6.7836C2.61774 8.33333 1.93646 9.76612 1.53383 11.8093C1.45586 12.2064 1.12864 12.9825 1.05323 13.3513C0.511276 16.0511 0.66466 18.4361 0.766916 19.9177C0.869171 21.3994 1.64376 22.0791 2.98842 22.5096C3.16087 22.5652 3.33944 22.5993 3.52015 22.6111H3.63902C4.18353 22.6111 5.47195 22.7127 5.47195 22.7127C5.47195 22.7127 7.44165 18.5042 7.91586 17.2989C8.04368 16.9841 8.12932 16.7553 8.19962 16.6153L8.2303 16.5549C8.56774 15.8751 8.84256 15.3238 9.33338 15.0707V15.054L9.51744 14.9923C9.66538 14.945 9.81982 14.9216 9.97504 14.9229H10.4812L10.5515 14.9743C10.927 15.2495 11.3797 15.3978 11.8444 15.3978C12.3091 15.3978 12.7618 15.2495 13.1373 14.9743L13.2076 14.9229H20.5789L20.6492 14.9743C21.0249 15.2498 21.4778 15.3983 21.9428 15.3983C22.4077 15.3983 22.8607 15.2498 23.2363 14.9743L23.3053 14.9229Z" fill="#353D4C"/>
<path d="M28.7735 3.40015V3.82807H24.797L25.1498 3.12259C25.1892 3.04499 25.2493 2.9799 25.3233 2.93454C25.3973 2.88917 25.4823 2.8653 25.569 2.86559H28.243C28.3835 2.86693 28.5178 2.92373 28.6171 3.02372C28.7163 3.12372 28.7725 3.25891 28.7735 3.40015Z" fill="#353D4C"/>
<path d="M11.8399 15.9342C11.2996 15.9342 10.7714 15.7731 10.3221 15.4712C9.87286 15.1694 9.52276 14.7403 9.3161 14.2384C9.10943 13.7365 9.05549 13.1842 9.16109 12.6514C9.26669 12.1187 9.5271 11.6294 9.90936 11.2454C10.2916 10.8615 10.7786 10.6002 11.3086 10.4945C11.8386 10.3888 12.3879 10.4436 12.887 10.6518C13.3861 10.8601 13.8125 11.2124 14.1123 11.6644C14.4122 12.1163 14.5719 12.6475 14.5714 13.1907C14.5701 13.9183 14.2818 14.6158 13.7697 15.1301C13.2577 15.6443 12.5637 15.9335 11.8399 15.9342ZM11.8399 10.9805C11.4056 10.9805 10.981 11.1099 10.6199 11.3525C10.2588 11.5951 9.97734 11.9399 9.81114 12.3433C9.64493 12.7467 9.60144 13.1906 9.68617 13.6188C9.77091 14.0471 9.98005 14.4404 10.2872 14.7492C10.5943 15.0579 10.9855 15.2682 11.4115 15.3534C11.8375 15.4385 12.279 15.3948 12.6803 15.2277C13.0815 15.0606 13.4245 14.7777 13.6658 14.4146C13.9071 14.0516 14.0359 13.6248 14.0359 13.1881C14.0345 12.6033 13.8026 12.0428 13.391 11.6295C12.9794 11.2162 12.4217 10.9837 11.8399 10.983V10.9805Z" fill="#353D4C"/>
<path d="M21.9415 15.9342C21.401 15.935 20.8724 15.7745 20.4227 15.4731C19.9729 15.1717 19.6222 14.7429 19.4149 14.2411C19.2077 13.7392 19.1532 13.1868 19.2584 12.6538C19.3635 12.1208 19.6236 11.6311 20.0058 11.2468C20.3879 10.8625 20.8748 10.6008 21.4049 10.4948C21.9351 10.3888 22.4846 10.4433 22.9839 10.6514C23.4832 10.8596 23.9098 11.2119 24.2098 11.664C24.5098 12.116 24.6697 12.6473 24.6692 13.1907C24.6678 13.9177 24.3801 14.6145 23.8688 15.1287C23.3576 15.6429 22.6646 15.9325 21.9415 15.9342ZM21.9415 10.9805C21.5072 10.9805 21.0826 11.1099 20.7215 11.3525C20.3604 11.5951 20.0789 11.9399 19.9127 12.3433C19.7465 12.7467 19.703 13.1906 19.7878 13.6188C19.8725 14.0471 20.0816 14.4404 20.3887 14.7492C20.6958 15.0579 21.0871 15.2682 21.5131 15.3534C21.9391 15.4385 22.3806 15.3948 22.7819 15.2277C23.1831 15.0606 23.5261 14.7777 23.7674 14.4146C24.0087 14.0516 24.1374 13.6248 24.1374 13.1881C24.1361 12.6033 23.9042 12.0428 23.4926 11.6295C23.081 11.2162 22.5233 10.9837 21.9415 10.983V10.9805Z" fill="#353D4C"/>
<path d="M20.5342 8.85633H13.2677C12.9246 8.85565 12.5958 8.71824 12.3533 8.47423C12.1108 8.23022 11.9745 7.89952 11.9741 7.55461V4.6736H21.829V7.55461C21.8287 7.89974 21.6922 8.23064 21.4494 8.47469C21.2067 8.71873 20.8775 8.85599 20.5342 8.85633ZM12.5097 5.21202V7.55461C12.5097 7.75705 12.5897 7.95119 12.7321 8.09434C12.8745 8.23749 13.0676 8.31791 13.2689 8.31791H20.5355C20.7369 8.31791 20.93 8.23749 21.0724 8.09434C21.2147 7.95119 21.2947 7.75705 21.2947 7.55461V5.21202H12.5097Z" fill="#353D4C"/>
<path d="M7.48 7.24364V10.0822H6.53797V7.24364H5.77105V6.44307H8.25331V7.24492L7.48 7.24364Z" fill="white"/>
<path d="M26.8127 8.38602H28.6814C28.6821 8.56194 28.674 8.73778 28.6571 8.91288C28.6429 9.06272 28.6107 9.21029 28.5613 9.35236C28.4984 9.53468 28.4059 9.70532 28.2877 9.85737C28.1746 10.0023 28.0375 10.1266 27.8825 10.2249C27.724 10.3247 27.5518 10.4005 27.3713 10.4498C27.1805 10.5019 26.9836 10.5278 26.7859 10.5269C26.5237 10.5297 26.2634 10.4822 26.0189 10.3868C25.7946 10.2988 25.5909 10.1649 25.4207 9.99358C25.2531 9.81932 25.1226 9.61249 25.0373 9.38577C24.9418 9.13528 24.8946 8.86884 24.898 8.60062C24.8949 8.33433 24.9413 8.06979 25.0347 7.82061C25.1186 7.59389 25.2493 7.38761 25.4182 7.21537C25.5922 7.04646 25.7988 6.91525 26.0253 6.82987C26.2784 6.73363 26.5473 6.68612 26.8178 6.6898C27.1652 6.68219 27.5083 6.76733 27.8122 6.93652C28.1104 7.11526 28.3469 7.38169 28.4897 7.69982L27.595 8.07119C27.5321 7.89855 27.419 7.74897 27.2703 7.642C27.135 7.55512 26.9771 7.51041 26.8165 7.5135C26.6845 7.51177 26.5536 7.53895 26.4331 7.59317C26.3189 7.64565 26.2179 7.7234 26.1378 7.82061C26.0525 7.9258 25.9875 8.04609 25.9461 8.17528C25.8981 8.3251 25.8748 8.48179 25.8771 8.63917C25.8758 8.78444 25.8961 8.92908 25.9371 9.06837C25.9736 9.19378 26.0349 9.31049 26.1174 9.41147C26.1979 9.50866 26.2999 9.58565 26.4152 9.63634C26.5457 9.69184 26.6864 9.71899 26.828 9.71602C26.9184 9.71645 27.0085 9.7061 27.0965 9.68518C27.1794 9.66566 27.2582 9.63127 27.3291 9.58366C27.3982 9.53643 27.4562 9.47459 27.4991 9.40247C27.5467 9.31941 27.5776 9.2277 27.5898 9.13262H26.8229L26.8127 8.38602Z" fill="white"/>
<path d="M11.854 15.284C12.9143 15.284 13.7738 14.4199 13.7738 13.3539C13.7738 12.2879 12.9143 11.4238 11.854 11.4238C10.7937 11.4238 9.93414 12.2879 9.93414 13.3539C9.93414 14.4199 10.7937 15.284 11.854 15.284Z" fill="#353D4C"/>
<path d="M11.8361 12.5932C11.9247 12.5776 12.0157 12.5826 12.1021 12.6078C12.1884 12.6329 12.268 12.6776 12.3346 12.7384C12.4051 12.8012 12.4616 12.8783 12.5003 12.9647C12.539 13.0511 12.559 13.1448 12.559 13.2395C12.559 13.3343 12.539 13.4279 12.5003 13.5143C12.4616 13.6007 12.4051 13.6779 12.3346 13.7407C12.2674 13.8002 12.1875 13.8435 12.1011 13.8673C12.0148 13.8911 11.9241 13.8949 11.8361 13.8782C11.995 13.8486 12.1395 13.7662 12.2464 13.6443C12.3446 13.5296 12.3987 13.3832 12.3987 13.2318C12.3987 13.0804 12.3446 12.9341 12.2464 12.8193C12.1384 12.7002 11.9941 12.6206 11.8361 12.5932Z" fill="white"/>
<path d="M21.9824 15.284C23.0427 15.284 23.9022 14.4199 23.9022 13.3539C23.9022 12.2879 23.0427 11.4238 21.9824 11.4238C20.9221 11.4238 20.0625 12.2879 20.0625 13.3539C20.0625 14.4199 20.9221 15.284 21.9824 15.284Z" fill="#353D4C"/>
<path d="M21.9645 12.5932C22.0531 12.5776 22.1441 12.5826 22.2305 12.6078C22.3169 12.6329 22.3964 12.6776 22.463 12.7384C22.5336 12.8012 22.59 12.8783 22.6287 12.9647C22.6674 13.0511 22.6874 13.1448 22.6874 13.2395C22.6874 13.3343 22.6674 13.4279 22.6287 13.5143C22.59 13.6007 22.5336 13.6779 22.463 13.7407C22.3965 13.8015 22.3169 13.8463 22.2305 13.8714C22.1441 13.8966 22.0531 13.9015 21.9645 13.8859C22.1235 13.8563 22.2679 13.7739 22.3748 13.652C22.4731 13.5373 22.5271 13.3909 22.5271 13.2395C22.5271 13.0881 22.4731 12.9418 22.3748 12.827C22.268 12.705 22.1235 12.6227 21.9645 12.5932Z" fill="white"/>
</g>
<defs>
<clipPath id="clip0">
<rect width="34" height="25" fill="white"/>
</clipPath>
</defs>
</svg>
