<svg width="16" height="16" viewBox="0 0 16 16" fill="none" xmlns="http://www.w3.org/2000/svg">
<path fill-rule="evenodd" clip-rule="evenodd" d="M15.2812 14.6374L12.297 11.6044C12.1265 11.4286 11.956 11.3407 11.7428 11.3846L11.1886 10.7692C10.9754 10.5495 10.7196 10.5495 10.4639 10.7692C10.2507 10.989 10.2507 11.2527 10.4639 11.5165L11.0607 12.1319C11.0607 12.3077 11.1033 12.5275 11.2739 12.7033L14.2155 15.7802C14.3433 15.9121 14.5565 16 14.7697 16C14.9828 16 15.196 15.956 15.2386 15.7802C15.5797 15.4286 15.5797 14.9451 15.2812 14.6374ZM9.95227 1.93407C8.80122 0.703297 7.3091 0 5.77436 0C4.36751 0 2.91803 0.527473 1.8096 1.58242C-0.492512 3.82418 -0.620408 7.56044 1.55381 9.89011C2.70487 11.1209 4.19698 11.7802 5.77436 11.7802C7.18121 11.7802 8.58806 11.2967 9.73911 10.1978C12.0412 8 12.1265 4.26374 9.95227 1.93407ZM8.97174 9.45055C8.07648 10.3297 6.92542 10.7253 5.77436 10.7253C4.45277 10.7253 3.25908 10.1978 2.40645 9.23077C1.51118 8.30769 1.08486 7.07692 1.1275 5.8022C1.17013 4.57143 1.72434 3.34066 2.57698 2.46154C3.47224 1.58242 4.6233 1.18681 5.81699 1.18681C7.09594 1.18681 8.28963 1.71429 9.1849 2.68132C10.9328 4.57143 10.8475 7.6044 8.97174 9.45055Z" fill="#999999"/>
</svg>
