<svg width="20" height="12" viewBox="0 0 20 12" fill="none" xmlns="http://www.w3.org/2000/svg">
<path d="M19.4231 4.26922C19.7417 4.26922 20 4.0109 20 3.6923V0.615389C20 0.296756 19.7417 0.038475 19.4231 0.038475H6.73078V2.92308C6.73078 3.24172 6.47246 3.5 6.15387 3.5C5.83527 3.5 5.57695 3.24168 5.57695 2.92308V0.038475H0.576953C0.25832 0.038475 0 0.296756 0 0.615389V3.6923C0 4.01094 0.25832 4.26922 0.576914 4.26922C1.53125 4.26922 2.3077 5.04562 2.3077 6C2.3077 6.95437 1.53129 7.73078 0.576914 7.73078C0.25832 7.73078 0 7.98906 0 8.30769V11.3846C0 11.7032 0.25832 11.9615 0.576914 11.9615H5.57691V9.07691C5.57691 8.75828 5.83523 8.5 6.15383 8.5C6.47242 8.5 6.73074 8.75832 6.73074 9.07691V11.9615H19.423C19.7417 11.9615 20 11.7032 20 11.3846V8.30769C20 7.98906 19.7416 7.73078 19.423 7.73078C18.4687 7.73078 17.6923 6.95437 17.6923 6C17.6923 5.04562 18.4687 4.26922 19.4231 4.26922ZM6.73078 6.76922C6.73078 7.08785 6.47246 7.34613 6.15387 7.34613C5.83527 7.34613 5.57695 7.08781 5.57695 6.76922V5.23074C5.57695 4.91211 5.83527 4.65383 6.15387 4.65383C6.47246 4.65383 6.73078 4.91215 6.73078 5.23074V6.76922Z" fill="#05CE78"/>
</svg>
