<svg width="20" height="18" viewBox="0 0 20 18" fill="none" xmlns="http://www.w3.org/2000/svg">
<path d="M16.3414 0.149799H3.65424C1.6396 0.149799 0 1.792 0 3.80664V11.2294C0 13.2441 1.6396 14.8841 3.65424 14.8841H11.6123L13.3164 17.324C13.546 17.654 13.9223 17.8489 14.3246 17.8498C14.7265 17.8506 15.1037 17.6549 15.3354 17.3258L17.1223 14.7945C18.7645 14.4394 20 12.9777 20 11.2294V3.80664C20 1.792 18.3565 0.149799 16.3414 0.149799ZM10 10.1844C10.5885 10.1844 11.0662 10.6721 11.0662 11.2736C11.0662 11.8751 10.5885 12.3619 10 12.3619C9.41146 12.3619 8.93378 11.8751 8.93378 11.2736C8.93378 10.6721 9.41103 10.1844 10 10.1844ZM8.93682 8.35516V3.8651C8.93682 3.26357 9.39847 2.77593 10 2.77593C10.602 2.77593 11.0632 3.26357 11.0632 3.8651V8.35516C11.0632 8.95669 10.602 9.44433 10 9.44433C9.39847 9.44433 8.93682 8.95626 8.93682 8.35516Z" fill="#05CE78"/>
</svg>
