<svg width="20" height="12" viewBox="0 0 20 12" fill="none" xmlns="http://www.w3.org/2000/svg">
<path fill-rule="evenodd" clip-rule="evenodd" d="M19.9335 8.87233L18.5928 3.17531C18.2318 1.64058 16.8172 0.0625153 14.6629 0.0625153H5.33721C3.76052 0.0625153 1.90047 1.07829 1.40716 3.17531L0.0665204 8.87233C-0.297402 10.4188 0.876457 11.9024 2.46719 11.9024C3.14315 11.9024 3.77898 11.5423 4.12643 10.9629L5.15914 9.24205C5.33569 8.94756 5.65856 8.76476 6.00188 8.76476H13.9979C14.3413 8.76476 14.6643 8.94771 14.8408 9.2422L15.8734 10.9628C16.221 11.5423 16.8568 11.9024 17.5336 11.9024C19.1219 11.9024 20.2977 10.4203 19.9335 8.87233ZM7.48992 4.9995H6.82067V5.66875C6.82067 5.99223 6.55837 6.25453 6.23473 6.25453C5.91125 6.25453 5.64895 5.99223 5.64895 5.66875V4.9995H4.9797C4.65621 4.9995 4.39391 4.7372 4.39391 4.41371C4.39391 4.09007 4.65621 3.82777 4.9797 3.82777H5.64895V3.15852C5.64895 2.83504 5.91125 2.57274 6.23473 2.57274C6.55837 2.57274 6.82067 2.83504 6.82067 3.15852V3.82777H7.48992C7.81341 3.82777 8.07571 4.09007 8.07571 4.41371C8.07571 4.7372 7.81341 4.9995 7.48992 4.9995ZM12.5101 4.9995C12.1867 4.9995 11.9243 4.73705 11.9243 4.41371C11.9243 4.09023 12.1869 3.82777 12.5101 3.82777C12.8336 3.82777 13.096 4.09023 13.096 4.41371C13.096 4.73705 12.8336 4.9995 12.5101 4.9995ZM13.7653 6.25453C13.4419 6.25453 13.1793 5.99208 13.1793 5.66875C13.1793 5.34541 13.4419 5.08281 13.7653 5.08281C14.0886 5.08281 14.351 5.34541 14.351 5.66875C14.351 5.99208 14.0886 6.25453 13.7653 6.25453ZM13.7653 3.74446C13.4419 3.74446 13.1793 3.48201 13.1793 3.15852C13.1793 2.83519 13.4419 2.57274 13.7653 2.57274C14.0886 2.57274 14.351 2.83519 14.351 3.15852C14.351 3.48201 14.0886 3.74446 13.7653 3.74446ZM15.0203 4.9995C14.697 4.9995 14.4344 4.73705 14.4344 4.41371C14.4344 4.09023 14.697 3.82777 15.0203 3.82777C15.3436 3.82777 15.6061 4.09023 15.6061 4.41371C15.6061 4.73705 15.3436 4.9995 15.0203 4.9995Z" fill="#05CE78"/>
</svg>
