<svg width="16" height="16" viewBox="0 0 16 16" fill="none" xmlns="http://www.w3.org/2000/svg">
<path fill-rule="evenodd" clip-rule="evenodd" d="M2.9011 2H13.0989C13.8901 2 14.5934 2.30845 15.1209 2.83723C15.6484 3.36601 16 4.07104 16 4.86421V11.3858C16 12.179 15.6484 12.884 15.1209 13.4128C14.5934 13.9415 13.8901 14.25 13.0989 14.25H2.9011C2.10989 14.25 1.40659 13.9415 0.879121 13.4128C0.351648 12.884 0 12.179 0 11.3858V4.86421C0 4.07104 0.351648 3.36601 0.879121 2.83723C1.40659 2.30845 2.10989 2 2.9011 2ZM1.40659 3.85072L8 7.50809L14.5934 3.85072C14.5055 3.76259 14.4176 3.67446 14.3736 3.6304C14.0659 3.27788 13.5824 3.10162 13.0989 3.10162H2.9011C2.41758 3.10162 1.93407 3.27788 1.62637 3.6304C1.58242 3.67446 1.49451 3.76259 1.40659 3.85072ZM14.9011 4.90827L8.26374 8.56565C8.08791 8.69784 7.91209 8.69784 7.73626 8.56565L1.0989 4.90827V11.3858C1.0989 11.8705 1.31868 12.3112 1.62637 12.6196C1.93407 12.9721 2.41758 13.1484 2.9011 13.1484H13.0989C13.5824 13.1484 14.0659 12.9721 14.3736 12.6196C14.6813 12.3112 14.9011 11.8705 14.9011 11.3858V4.90827Z" fill="#05CE78"/>
</svg>
