<svg width="24" height="24" viewBox="0 0 24 24" fill="none" xmlns="http://www.w3.org/2000/svg">
<path fill-rule="evenodd" clip-rule="evenodd" d="M23.625 4.63934C22.9425 5.6168 22.155 6.48566 21.21 7.1916C21.21 7.35451 21.21 7.57172 21.21 7.84324C21.21 9.20082 21.0525 10.5584 20.6325 11.8617C20.265 13.2193 19.6875 14.5225 18.9 15.7172C18.165 16.9662 17.22 18.0523 16.17 19.0297C15.0675 19.9529 13.8075 20.7131 12.285 21.2561C10.7625 21.8535 9.135 22.125 7.455 22.125C4.725 22.125 2.2575 21.3648 0 19.8443C0.3675 19.8986 0.735 19.9529 1.155 19.9529C3.4125 19.9529 5.4075 19.1926 7.1925 17.7807C6.1425 17.7807 5.1975 17.4549 4.3575 16.8033C3.5175 16.1516 2.94 15.3371 2.625 14.3053C2.9925 14.3596 3.3075 14.4139 3.57 14.4139C3.99 14.4139 4.41 14.3596 4.83 14.1967C3.7275 13.9795 2.7825 13.3822 2.0475 12.5133C1.3125 11.5902 0.945 10.5041 0.945 9.30943V9.25512C1.6275 9.63525 2.3625 9.85246 3.15 9.85246C2.4675 9.41803 1.9425 8.8207 1.575 8.11475C1.155 7.35451 0.9975 6.53996 0.9975 5.72541C0.9975 4.80225 1.2075 3.9334 1.6275 3.17316C2.835 4.69365 4.305 5.94262 6.0375 6.86578C7.77 7.78894 9.66 8.33197 11.655 8.44057C11.55 8.00615 11.4975 7.62603 11.4975 7.2459C11.4975 5.88832 11.97 4.69365 12.915 3.71619C13.86 2.73873 15.015 2.25 16.38 2.25C17.745 2.25 18.9525 2.79303 19.8975 3.8248C21 3.60758 21.9975 3.22746 22.995 2.63012C22.6275 3.8248 21.8925 4.74795 20.8425 5.39959C21.7875 5.29098 22.68 5.01947 23.625 4.63934Z" fill="#05CE78"/>
</svg>
