<svg width="24" height="24" viewBox="0 0 24 24" fill="none" xmlns="http://www.w3.org/2000/svg">
<g clip-path="url(#clip0)">
<path fill-rule="evenodd" clip-rule="evenodd" d="M17.4243 12C17.4243 11.6701 17.2815 11.4344 16.9958 11.293L10.0452 6.95697C9.75952 6.76844 9.47388 6.76844 9.14062 6.95697C8.85498 7.09836 8.71216 7.33402 8.71216 7.71107V16.2889C8.71216 16.666 8.85498 16.9016 9.14062 17.043C9.28345 17.1373 9.42627 17.1844 9.56909 17.1844C9.75952 17.1844 9.90234 17.1373 10.0452 17.043L16.9958 12.707C17.2815 12.5656 17.4243 12.3299 17.4243 12ZM24.375 12C24.375 12.8484 24.375 13.5553 24.375 14.0266C24.375 14.498 24.3274 15.1107 24.2322 15.8648C24.1846 16.6189 24.0894 17.2787 23.9465 17.8443C23.8037 18.5041 23.4705 19.0697 22.9944 19.4939C22.5183 19.9652 21.947 20.2008 21.3281 20.2951C19.281 20.4836 16.2817 20.625 12.1875 20.625C8.09326 20.625 5.09399 20.4836 3.04688 20.2951C2.42798 20.2008 1.85669 19.9652 1.38062 19.4939C0.904541 19.0697 0.571289 18.5041 0.428467 17.8443C0.285645 17.2787 0.19043 16.6189 0.142822 15.8648C0.0476074 15.1107 0 14.498 0 14.0266C0 13.5553 0 12.8484 0 12C0 11.1516 0 10.4447 0 9.97336C0 9.50205 0.0476074 8.88934 0.142822 8.13525C0.19043 7.38115 0.285645 6.72131 0.428467 6.15574C0.571289 5.4959 0.904541 4.93033 1.38062 4.50615C1.85669 4.03484 2.42798 3.79918 3.04688 3.70492C5.09399 3.51639 8.09326 3.375 12.1875 3.375C16.2817 3.375 19.281 3.51639 21.3281 3.70492C21.947 3.79918 22.5183 4.03484 22.9944 4.50615C23.4705 4.93033 23.8037 5.4959 23.9465 6.15574C24.0894 6.72131 24.1846 7.38115 24.2322 8.13525C24.3274 8.88934 24.375 9.50205 24.375 9.97336C24.375 10.4447 24.375 11.1516 24.375 12Z" fill="#05CE78"/>
</g>
<defs>
<clipPath id="clip0">
<rect width="24" height="24" fill="white"/>
</clipPath>
</defs>
</svg>
