<svg width="164" height="18" viewBox="0 0 164 18" fill="none" xmlns="http://www.w3.org/2000/svg">
<path d="M126.292 6.01467L127.719 2.87775L125.693 0H113.57L112.251 2.8802L111.787 0H106.332L100.865 6.60147L101.207 2.88753L99.1697 0H93.7143L89.1408 9.94621L89.7897 2.87775L87.7454 0H79.7632L81.1752 2.2445L75.8885 8.61614L74.1461 6.01467H77.5263L78.9526 2.87775L76.9273 0H67.854C65.5743 0 62.9453 1.63081 62.0277 3.62103L61.9326 3.8313C61.5666 3.37897 59.5603 0 57.5255 0H51.6803C49.6811 0 47.4562 1.24205 46.2938 2.8802L46.7692 0H42.015L38.5302 2.8802L37.4058 0H32.9678L31.1684 3.91198C30.8118 3.42298 28.7319 0 26.7042 0H20.8542C18.8646 0 16.6396 1.24205 15.4653 2.8802L15.3702 0H2.97374L1.54748 3.13692L3.56563 6.01467H4.17417L0 15.1198L2.03716 18H6.47281L11.9995 6.01956H13.925L11.41 11.4914C10.9631 12.4694 10.9893 13.379 11.4599 14.066C11.8094 14.5844 13.1382 16.423 13.4971 16.9462C13.944 17.6088 14.8354 17.9927 15.9265 17.9927H32.4781L33.6928 15.3399L35.0834 14.198L35.2498 15.1125L37.287 17.9927H42.2456L40.6815 9.58435L44.5989 6.35697L42.2361 11.4914C41.7892 12.4694 41.8153 13.379 42.286 14.066C42.6354 14.5844 43.9642 16.423 44.3232 16.9462C44.7701 17.6088 45.6615 17.9927 46.7526 17.9927H52.6026C54.9083 17.9927 57.5112 16.3863 58.4526 14.3716L58.5429 14.1736C58.9042 14.6259 60.92 17.9927 62.9239 17.9927H71.9972C72.1565 17.6479 72.5273 17.9927 72.5273 17.9927H77.2553L81.8669 12.4303L81.6292 15.1198L83.6663 18H120.756L122.182 14.89L120.145 12.0098H116.508C116.832 11.8521 117.186 11.7686 117.545 11.7653H123.618L125.044 8.62836L122.881 6.02689L126.292 6.01467ZM19.2924 12.0098H18.9858L21.1038 7.41809C21.3297 7.00349 21.6563 6.65625 22.0517 6.41027C22.4471 6.16429 22.8977 6.02799 23.3596 6.01467H23.6473L21.5483 10.6064C21.3183 11.0174 20.9908 11.3617 20.5962 11.6072C20.2017 11.8526 19.7532 11.9911 19.2924 12.0098ZM66.9626 12.0098H65.9903C67.0077 9.80929 68.2177 7.16381 68.7501 6.01712H69.701L66.9626 12.0098ZM50.1209 12.0098H49.8142L51.9322 7.41809C52.159 7.00209 52.4871 6.65395 52.8843 6.40789C53.2814 6.16182 53.7341 6.02631 54.1976 6.01467H54.4852L52.3839 10.6064C52.153 11.0188 51.824 11.364 51.4277 11.6095C51.0314 11.855 50.5809 11.9928 50.1185 12.0098H50.1209ZM114.267 5.8044C113.525 5.9261 112.808 6.16963 112.141 6.52567L114.267 5.8044Z" fill="#353D4C"/>
<path d="M13.9321 3.13692H9.96475L4.43802 15.1174H0L5.50296 3.13692H1.53798L2.97374 0H15.3702L13.9321 3.13692Z" fill="#05CE78"/>
<path d="M26.7042 0C29.01 0 30.1248 1.63081 29.2073 3.64548L25.587 11.4914C24.6361 13.5061 22.0427 15.1125 19.7369 15.1125H13.8869C12.7959 15.1125 11.9044 14.731 11.4576 14.066C11.0107 13.401 10.9631 12.4694 11.41 11.4914L15.0279 3.62103C15.9693 1.63081 18.5722 0 20.8542 0H26.7042ZM19.2924 12.0098C19.7531 11.9911 20.2017 11.8526 20.5962 11.6072C20.9908 11.3617 21.3183 11.0174 21.5483 10.6064L24.3247 4.5379C24.6955 3.74817 24.2748 3.13447 23.3739 3.13447H21.3248C20.8629 3.14779 20.4123 3.28409 20.0169 3.53007C19.6215 3.77605 19.2949 4.1233 19.069 4.5379L16.2664 10.6064C15.9193 11.3716 16.3401 12.0098 17.2339 12.0098H19.2924Z" fill="#05CE78"/>
<path d="M38.6443 6.7066L40.206 15.1198H35.2498L34.3584 10.2494L31.6557 12.4694L30.441 15.1222H26.0029L32.9678 0H37.4058L34.5795 6.14425L42.0174 0H46.7715L38.6443 6.7066Z" fill="#05CE78"/>
<path d="M57.5255 0C59.8313 0 60.9461 1.63081 60.0286 3.64548L56.4154 11.4914C55.4646 13.5061 52.8712 15.1125 50.5654 15.1125H44.7154C43.6243 15.1125 42.7329 14.731 42.286 14.066C41.8391 13.401 41.7892 12.4694 42.2361 11.4914L45.854 3.62103C46.7977 1.63081 49.4006 0 51.6803 0H57.5255ZM50.1185 12.0098C50.5792 11.9911 51.0278 11.8526 51.4223 11.6072C51.8168 11.3617 52.1444 11.0174 52.3744 10.6064L55.1484 4.5379C55.5193 3.74817 55.0985 3.13447 54.1976 3.13447H52.139C51.6771 3.14779 51.2265 3.28409 50.8311 3.53007C50.4357 3.77605 50.1091 4.1233 49.8832 4.5379L47.0949 10.6064C46.7478 11.3716 47.1685 12.0098 48.0623 12.0098H50.1185Z" fill="#05CE78"/>
<path d="M66.7129 3.13692C65.8952 4.89731 63.4896 10.1491 62.622 12.0098H66.9602L69.8364 5.73839H74.2745C73.7776 6.80929 70.4069 14.1516 69.96 15.1222H60.8867C58.6071 15.1222 57.4899 13.5159 58.4074 11.5012C59.1514 9.89487 61.3075 5.22983 62.0277 3.62347C62.9453 1.63081 65.5719 0 67.854 0H76.9273L75.501 3.13692H66.7129Z" fill="#05CE78"/>
<path d="M87.7454 0L86.3572 15.1198H81.622L82.416 6.42543L75.2253 15.1198H70.4925L81.1752 2.2445L79.7632 0H87.7454Z" fill="#05CE78"/>
<path d="M111.787 0L104.83 15.1198H100.358L103.605 8.10758L97.7815 15.1198H93.7904L94.4346 8.10758L91.2112 15.1198H86.7495L93.7143 0H99.1673L98.2759 9.71394L106.332 0H111.785H111.787Z" fill="#05CE78"/>
<path d="M115.084 5.73594H123.043L121.617 8.87286H115.526C115.067 8.89157 114.62 9.02937 114.226 9.27345C113.833 9.51752 113.506 9.85996 113.275 10.2689L112.481 12.0024H120.167L118.74 15.1125H106.617L109.27 9.37653C110.176 7.36919 112.779 5.73594 115.084 5.73594ZM125.693 0L124.267 3.13692H112.144L113.57 0H125.693Z" fill="#05CE78"/>
<path d="M122.655 15.6553L124.771 17.7848L126.14 16.1394L124.279 14.1516L122.655 15.6553Z" fill="#353D4C"/>
<path d="M123.509 13.8606C123.295 13.8464 123.081 13.8987 122.897 14.0108C122.712 14.1228 122.564 14.2894 122.472 14.4889C122.381 14.6885 122.35 14.9117 122.383 15.1296C122.416 15.3476 122.513 15.5502 122.659 15.7112C122.806 15.8721 122.997 15.984 123.206 16.0322C123.415 16.0805 123.634 16.0629 123.833 15.9817C124.033 15.9005 124.204 15.7596 124.324 15.5771C124.445 15.3946 124.509 15.1791 124.509 14.9584C124.52 14.8172 124.503 14.6752 124.457 14.5415C124.411 14.4077 124.339 14.2853 124.245 14.1819C124.151 14.0786 124.037 13.9966 123.91 13.9413C123.783 13.886 123.646 13.8585 123.509 13.8606Z" fill="#353D4C"/>
<path d="M125.377 15.7799C125.163 15.7652 124.949 15.8173 124.764 15.9293C124.578 16.0413 124.43 16.2082 124.338 16.4081C124.247 16.6079 124.216 16.8316 124.249 17.05C124.283 17.2683 124.38 17.4711 124.527 17.632C124.674 17.793 124.865 17.9045 125.075 17.9521C125.285 17.9998 125.504 17.9813 125.704 17.8991C125.903 17.8169 126.074 17.6748 126.194 17.4913C126.314 17.3078 126.377 17.0914 126.376 16.8704C126.385 16.73 126.367 16.589 126.321 16.4563C126.275 16.3236 126.203 16.2022 126.109 16.0997C126.015 15.9972 125.902 15.9158 125.776 15.8608C125.65 15.8058 125.514 15.7782 125.377 15.7799Z" fill="#353D4C"/>
<path d="M162.134 5.53056H158.407L155.198 9.39853L155.376 7.44254L153.51 5.52322H149.783L148.73 7.82396C148.639 7.76039 147.375 6.48655 147.22 6.26161C147.053 6.02384 146.824 5.83982 146.559 5.73105C146.234 5.59644 145.885 5.53154 145.535 5.54034H141.537C141.133 5.54223 140.733 5.60652 140.348 5.73105C139.947 5.85857 139.563 6.03678 139.205 6.26161C138.849 6.4829 138.522 6.74902 138.23 7.05379C138.109 7.18047 137.996 7.31523 137.892 7.45721L137.515 5.53789H129.768L126.143 13.3887C125.993 13.6917 125.917 14.0272 125.921 14.3667C125.925 14.6465 126.008 14.9191 126.159 15.1516C126.311 15.379 127.873 16.846 128.025 17.0709C128.194 17.3111 128.427 17.4962 128.696 17.6039C129.021 17.7387 129.369 17.8036 129.72 17.7946H134.617L135.601 15.6479L133.735 13.7286H131.793L133.695 9.60146H136.825L135.083 13.3961C134.766 14.0823 134.777 14.6691 135.116 15.1565C135.273 15.401 136.74 16.7262 136.982 17.0758C137.151 17.3151 137.384 17.4986 137.652 17.6039C137.968 17.7313 138.305 17.7936 138.644 17.7873H159.239L163.993 7.45476L162.134 5.53056ZM141.377 13.4474C141.176 13.5708 140.955 13.6538 140.724 13.6919L142.181 10.5452C142.322 10.2598 142.543 10.0241 142.815 9.86797C143.011 9.747 143.226 9.66411 143.45 9.62347L142.007 12.7653C141.867 13.0517 141.648 13.2891 141.377 13.4474Z" fill="#353D4C"/>
<path d="M122.494 14.9584C122.484 14.8162 122.504 14.6735 122.551 14.5394C122.598 14.4053 122.672 14.2828 122.768 14.1796C122.863 14.0764 122.979 13.9947 123.107 13.9398C123.235 13.8849 123.372 13.858 123.511 13.8606C123.649 13.8585 123.785 13.886 123.912 13.9413C124.039 13.9966 124.153 14.0786 124.247 14.1819C124.342 14.2853 124.414 14.4078 124.459 14.5415C124.505 14.6752 124.523 14.8172 124.512 14.9584C124.521 15.1006 124.502 15.2432 124.456 15.3774C124.41 15.5117 124.337 15.6347 124.242 15.7388C124.148 15.8429 124.034 15.926 123.907 15.9827C123.779 16.0395 123.642 16.0688 123.504 16.0688C123.365 16.0688 123.228 16.0395 123.101 15.9827C122.974 15.926 122.86 15.8429 122.766 15.7388C122.671 15.6347 122.598 15.5117 122.552 15.3774C122.506 15.2432 122.487 15.1006 122.496 14.9584H122.494Z" fill="#05CE78"/>
<path d="M131.819 7.67237L129.04 13.7188H133.733L132.751 15.8631C132.751 15.8631 127.117 15.7995 126.829 15.6724C126.565 15.5637 126.335 15.3797 126.169 15.1418C126.017 14.9093 125.935 14.6367 125.931 14.357C125.927 14.0174 126.003 13.6819 126.152 13.379L129.777 5.52078H137.519L136.521 7.66504L131.819 7.67237Z" fill="#05CE78"/>
<path d="M145.535 5.53056C145.885 5.52176 146.234 5.58665 146.559 5.72127C146.824 5.83004 147.053 6.01406 147.22 6.25183C147.372 6.48689 147.454 6.76193 147.458 7.04401C147.461 7.38349 147.385 7.71885 147.237 8.022L144.765 13.3887C144.6 13.7527 144.374 14.0838 144.097 14.3667C143.803 14.6673 143.476 14.9308 143.122 15.1516C142.761 15.3775 142.374 15.5558 141.969 15.6821C141.58 15.8069 141.174 15.8712 140.766 15.8729H136.778C136.439 15.8791 136.102 15.8168 135.786 15.6895C135.517 15.5837 135.284 15.3992 135.116 15.1589C134.777 14.6699 134.766 14.0831 135.083 13.3985L137.557 8.01956C137.728 7.66458 137.955 7.34081 138.228 7.06112C138.519 6.75635 138.847 6.49024 139.202 6.26894C139.561 6.04414 139.945 5.86592 140.346 5.73838C140.73 5.61385 141.131 5.54956 141.534 5.54767L145.535 5.53056ZM140.469 13.7213C140.791 13.718 141.105 13.6232 141.377 13.4474C141.649 13.2912 141.87 13.0555 142.012 12.7702L143.914 8.63569C143.975 8.53398 144.007 8.41671 144.007 8.29706C144.007 8.17742 143.975 8.06014 143.914 7.95843C143.838 7.86008 143.739 7.78299 143.626 7.73428C143.514 7.68557 143.391 7.6668 143.269 7.6797H141.862C141.543 7.68369 141.232 7.77756 140.961 7.9511C140.689 8.10725 140.468 8.34296 140.327 8.62836L138.413 12.7628C138.35 12.8639 138.317 12.9814 138.317 13.1015C138.317 13.2215 138.35 13.339 138.413 13.4401C138.491 13.5373 138.59 13.6135 138.703 13.6621C138.815 13.7107 138.938 13.7302 139.06 13.7188L140.469 13.7213Z" fill="#05CE78"/>
<path d="M162.134 5.53056L157.363 15.8631H154.323L156.543 11.0709L152.561 15.8631H149.835L150.275 11.0709L148.074 15.8631H145.021L149.776 5.53056H153.503L152.892 12.1687L158.397 5.53056H162.124H162.134Z" fill="#05CE78"/>
</svg>
