<svg width="20" height="20" viewBox="0 0 20 20" fill="none" xmlns="http://www.w3.org/2000/svg">
<path fill-rule="evenodd" clip-rule="evenodd" d="M18.0199 9.0359H16.1029V15.9774C16.1029 16.1978 16.4315 16.363 16.6506 16.363C17.3626 16.363 19.3892 16.363 19.9917 16.363C19.9917 16.1427 19.9917 15.9223 19.9917 15.7019V11.1294C20.1012 10.0275 19.1153 9.0359 18.0199 9.0359ZM4.16265 8.31972H8.38006C8.43484 8.31972 8.48961 8.26463 8.48961 8.15445V5.78552C8.48961 5.67534 8.43484 5.67534 8.38006 5.67534H4.16265C4.0531 5.67534 3.99833 5.67534 3.99833 5.78552V8.15445C3.99833 8.26463 4.0531 8.31972 4.16265 8.31972ZM14.7336 15.7019V3.69206C14.7336 2.14951 13.4191 0.9375 11.8855 0.9375H2.84813C1.20498 0.9375 0 2.14951 0 3.69206V16.3079C0 17.8505 1.31452 19.0625 2.84813 19.0625H16.7054C16.8149 19.0625 16.9244 19.0625 16.9792 19.0625C17.9651 18.9523 18.7867 18.4565 19.3344 17.7403C18.5128 17.7403 17.3078 17.7403 16.6506 17.7403C15.6647 17.6852 14.7336 16.8038 14.7336 15.7019ZM2.68381 5.78552C2.68381 5.01425 3.34107 4.29806 4.16265 4.29806H8.38006C9.14687 4.29806 9.8589 4.95916 9.8589 5.78552V8.15445C9.8589 8.98081 9.20164 9.64191 8.38006 9.64191H4.16265C3.34107 9.64191 2.68381 8.98081 2.68381 8.15445V5.78552ZM8.27052 15.757H3.39584C3.06721 15.757 2.73858 15.4265 2.73858 15.0959C2.73858 14.7103 3.06721 14.4348 3.39584 14.4348H8.27052C8.59915 14.4348 8.92778 14.7103 8.92778 15.0959C8.92778 15.4265 8.59915 15.757 8.27052 15.757ZM10.078 13.0576H3.39584C3.06721 13.0576 2.73858 12.727 2.73858 12.3965C2.73858 12.0659 3.06721 11.7354 3.39584 11.7354H10.078C10.4066 11.7354 10.7352 12.0659 10.7352 12.3965C10.7352 12.727 10.4066 13.0576 10.078 13.0576Z" fill="#05CE78"/>
</svg>
