<svg width="16" height="16" viewBox="0 0 16 16" fill="none" xmlns="http://www.w3.org/2000/svg">
<g clip-path="url(#clip0)">
<path fill-rule="evenodd" clip-rule="evenodd" d="M13.7986 2.19602C12.3781 0.780642 10.489 0.000830077 8.47635 0C4.32917 0 0.95397 3.35896 0.952302 7.4874C0.951746 8.80713 1.29816 10.0954 1.95661 11.231L0.889191 15.1111L4.8778 14.0698C5.97683 14.6665 7.21412 14.9809 8.47329 14.9812H8.47644C12.6232 14.9812 15.9987 11.622 16.0003 7.49339C16.0011 5.49253 15.2192 3.6113 13.7986 2.19602ZM8.47635 13.7167H8.47375C7.35165 13.7162 6.25114 13.4161 5.29085 12.8491L5.0626 12.7142L2.69569 13.3322L3.32745 11.0355L3.17871 10.8001C2.5527 9.80912 2.22213 8.6638 2.22268 7.48786C2.22398 4.05641 5.02942 1.26467 8.47885 1.26467C10.1492 1.26522 11.7194 1.91342 12.9001 3.08983C14.0807 4.26623 14.7306 5.82992 14.73 7.49293C14.7285 10.9247 11.9233 13.7167 8.47635 13.7167V13.7167ZM11.9066 9.05541C11.7187 8.96171 10.7943 8.50922 10.6219 8.44669C10.4498 8.38425 10.3243 8.35317 10.1991 8.5404C10.0737 8.72763 9.71346 9.14912 9.60373 9.27391C9.494 9.39879 9.38446 9.41447 9.19643 9.32076C9.00839 9.22715 8.40267 9.0295 7.68454 8.39209C7.12571 7.89598 6.74843 7.28329 6.63871 7.09606C6.52917 6.90865 6.63778 6.81715 6.72119 6.71422C6.9247 6.46271 7.12849 6.19902 7.19114 6.07423C7.25388 5.94935 7.22246 5.84006 7.17539 5.74645C7.12849 5.65283 6.75251 4.73191 6.59589 4.35717C6.44317 3.99249 6.28831 4.04174 6.17283 4.03602C6.06329 4.03058 5.9379 4.02948 5.81252 4.02948C5.68722 4.02948 5.48352 4.07624 5.31115 4.26365C5.13887 4.45097 4.65325 4.90355 4.65325 5.82447C4.65325 6.7454 5.3269 7.63506 5.42087 7.75994C5.51485 7.88482 6.74658 9.77463 8.63241 10.585C9.08096 10.7779 9.43108 10.8929 9.70419 10.9792C10.1546 11.1216 10.5643 11.1015 10.8883 11.0533C11.2495 10.9995 12.0005 10.6007 12.1573 10.1637C12.3139 9.72658 12.3139 9.35203 12.2668 9.27391C12.2199 9.19588 12.0945 9.14912 11.9066 9.05541V9.05541Z" fill="#05CE78"/>
</g>
<defs>
<clipPath id="clip0">
<rect width="16" height="16" fill="white"/>
</clipPath>
</defs>
</svg>
