<svg width="16" height="13" viewBox="0 0 16 13" fill="none" xmlns="http://www.w3.org/2000/svg">
<path fill-rule="evenodd" clip-rule="evenodd" d="M2.9011 0.500732H13.0989C13.8901 0.500732 14.5934 0.809186 15.1209 1.33796C15.6484 1.86674 16 2.57178 16 3.36494V9.88652C16 10.6797 15.6484 11.3847 15.1209 11.9135C14.5934 12.4423 13.8901 12.7507 13.0989 12.7507H2.9011C2.10989 12.7507 1.40659 12.4423 0.879121 11.9135C0.351648 11.3847 0 10.6797 0 9.88652V3.36494C0 2.57178 0.351648 1.86674 0.879121 1.33796C1.40659 0.809186 2.10989 0.500732 2.9011 0.500732ZM1.40659 2.35145L8 6.00883L14.5934 2.35145C14.5055 2.26332 14.4176 2.17519 14.3736 2.13113C14.0659 1.77861 13.5824 1.60235 13.0989 1.60235H2.9011C2.41758 1.60235 1.93407 1.77861 1.62637 2.13113C1.58242 2.17519 1.49451 2.26332 1.40659 2.35145ZM14.9011 3.40901L8.26374 7.06638C8.08791 7.19857 7.91209 7.19857 7.73626 7.06638L1.0989 3.40901V9.88652C1.0989 10.3712 1.31868 10.8119 1.62637 11.1203C1.93407 11.4729 2.41758 11.6491 2.9011 11.6491H13.0989C13.5824 11.6491 14.0659 11.4729 14.3736 11.1203C14.6813 10.8119 14.9011 10.3712 14.9011 9.88652V3.40901Z" fill="#05CE78"/>
</svg>
