<svg width="16" height="15" viewBox="0 0 16 15" fill="none" xmlns="http://www.w3.org/2000/svg">
<path d="M3.7179 9.87293C5.14359 11.5707 6.85981 12.9075 8.81864 13.8534C9.56443 14.2055 10.5618 14.6232 11.673 14.6948C11.7419 14.6978 11.8078 14.7008 11.8767 14.7008C12.6225 14.7008 13.2215 14.4442 13.7097 13.916C13.7127 13.913 13.7187 13.9071 13.7217 13.9011C13.8954 13.6922 14.0931 13.5043 14.2998 13.3043C14.4405 13.1701 14.5843 13.0298 14.7221 12.8866C15.36 12.2242 15.36 11.3828 14.7161 10.7412L12.916 8.94794C12.6105 8.63165 12.2451 8.46456 11.8617 8.46456C11.4783 8.46456 11.1099 8.63165 10.7954 8.94496L9.72317 10.0132C9.62433 9.95648 9.5225 9.90575 9.42665 9.85801C9.30685 9.79834 9.19603 9.74164 9.09719 9.67898C8.12077 9.06133 7.2342 8.25569 6.38658 7.2203C5.95827 6.68023 5.67074 6.22668 5.47006 5.76419C5.75161 5.51056 6.01518 5.245 6.26977 4.98541C6.35962 4.89291 6.45247 4.80041 6.54532 4.70791C6.8688 4.38565 7.04251 4.01267 7.04251 3.63373C7.04251 3.25478 6.87179 2.8818 6.54532 2.55955L5.65277 1.67036C5.54794 1.56593 5.4491 1.46448 5.34726 1.36004C5.14958 1.15714 4.94292 0.948274 4.73925 0.760292C4.43075 0.458925 4.06833 0.300781 3.68495 0.300781C3.30457 0.300781 2.93916 0.458925 2.61868 0.763276L1.49849 1.87923C1.09115 2.28503 0.860528 2.77737 0.812606 3.34728C0.755698 4.06042 0.887484 4.81831 1.22893 5.73435C1.75308 7.15167 2.5438 8.46754 3.7179 9.87293ZM1.54342 3.40994C1.57936 3.01309 1.73212 2.68188 2.01965 2.39543L3.13385 1.28545C3.30756 1.11835 3.49925 1.03182 3.68495 1.03182C3.86766 1.03182 4.05336 1.11835 4.22408 1.29142C4.42475 1.47641 4.61345 1.67036 4.81712 1.87625C4.91895 1.98068 5.02378 2.08512 5.12861 2.19253L6.02117 3.08172C6.20687 3.26672 6.30271 3.4547 6.30271 3.6397C6.30271 3.82469 6.20687 4.01267 6.02117 4.19767C5.92832 4.29017 5.83547 4.38565 5.74262 4.47815C5.46407 4.75863 5.20349 5.0242 4.91596 5.27782C4.90997 5.28379 4.90697 5.28677 4.90098 5.29274C4.65239 5.5404 4.69132 5.77612 4.75123 5.95515C4.75422 5.9641 4.75722 5.97007 4.76021 5.97902C4.99084 6.53103 5.31132 7.05619 5.81151 7.68279C6.71005 8.78681 7.65652 9.64318 8.69883 10.3026C8.82762 10.3862 8.9654 10.4518 9.09419 10.5174C9.214 10.5771 9.32482 10.6338 9.42366 10.6965C9.43564 10.7024 9.44462 10.7084 9.4566 10.7144C9.55544 10.7651 9.65129 10.789 9.74713 10.789C9.98674 10.789 10.1425 10.6368 10.1934 10.5861L11.3136 9.47011C11.4873 9.29705 11.676 9.20455 11.8617 9.20455C12.0893 9.20455 12.275 9.34479 12.3918 9.47011L14.1979 11.2664C14.5573 11.6244 14.5543 12.0123 14.1889 12.3913C14.0631 12.5256 13.9314 12.6539 13.7906 12.7881C13.5809 12.991 13.3623 13.1999 13.1646 13.4356C12.8202 13.8056 12.4098 13.9787 11.8797 13.9787C11.8288 13.9787 11.7748 13.9757 11.7239 13.9727C10.7415 13.9101 9.828 13.5281 9.14211 13.2029C7.27913 12.3048 5.64378 11.0307 4.28698 9.41342C3.16979 8.07368 2.41801 6.82643 1.92081 5.48967C1.61231 4.66912 1.4955 4.00969 1.54342 3.40994Z" fill="#05CE78" stroke="#05CE78" stroke-width="0.4"/>
</svg>
