<svg width="16" height="16" viewBox="0 0 16 16" fill="none" xmlns="http://www.w3.org/2000/svg">
<path fill-rule="evenodd" clip-rule="evenodd" d="M13.7991 2.69675C12.3786 1.28137 10.4894 0.501562 8.47681 0.500732C4.32963 0.500732 0.954428 3.85969 0.95276 7.98813C0.952204 9.30786 1.29862 10.5961 1.95707 11.7317L0.889648 15.6118L4.87826 14.5706C5.97729 15.1672 7.21458 15.4816 8.47375 15.482H8.4769C12.6236 15.482 15.9992 12.1227 16.0008 7.99412C16.0016 5.99327 15.2197 4.11203 13.7991 2.69675ZM8.47681 14.2174H8.47421C7.35211 14.2169 6.2516 13.9168 5.29131 13.3499L5.06305 13.2149L2.69615 13.8329L3.32791 11.5363L3.17917 11.3008C2.55315 10.3099 2.22258 9.16453 2.22314 7.98859C2.22444 4.55714 5.02988 1.7654 8.47931 1.7654C10.1497 1.76596 11.7199 2.41415 12.9005 3.59056C14.0812 4.76696 14.731 6.33065 14.7305 7.99366C14.729 11.4254 11.9237 14.2174 8.47681 14.2174ZM11.9071 9.55615C11.7191 9.46244 10.7948 9.00996 10.6224 8.94742C10.4502 8.88498 10.3247 8.8539 10.1995 9.04113C10.0741 9.22836 9.71392 9.64985 9.60419 9.77464C9.49446 9.89952 9.38492 9.9152 9.19689 9.8215C9.00885 9.72788 8.40313 9.53023 7.685 8.89282C7.12617 8.39671 6.74889 7.78402 6.63917 7.59679C6.52962 7.40938 6.63824 7.31789 6.72165 7.21496C6.92516 6.96344 7.12895 6.69976 7.1916 6.57497C7.25434 6.45009 7.22292 6.34079 7.17584 6.24718C7.12895 6.15356 6.75297 5.23264 6.59635 4.8579C6.44362 4.49322 6.28876 4.54247 6.17329 4.53676C6.06375 4.53131 5.93836 4.53021 5.81297 4.53021C5.68768 4.53021 5.48398 4.57697 5.31161 4.76438C5.13932 4.9517 4.65371 5.40428 4.65371 6.32521C4.65371 7.24613 5.32736 8.13579 5.42133 8.26067C5.5153 8.38555 6.74704 10.2754 8.63287 11.0857C9.08141 11.2787 9.43154 11.3937 9.70465 11.4799C10.155 11.6223 10.5648 11.6022 10.8887 11.5541C11.25 11.5003 12.0009 11.1014 12.1577 10.6644C12.3144 10.2273 12.3144 9.85276 12.2673 9.77464C12.2204 9.69661 12.095 9.64985 11.9071 9.55615Z" fill="#05CE78"/>
</svg>
